<svg xmlns="http://www.w3.org/2000/svg" width="71.33" height="58.485" viewBox="0 0 71.33 58.485">
  <g id="Asistencia_al_viajero_APP" data-name="Asistencia al viajero_APP" transform="translate(-44.184 -12.376)">
    <path id="Trazado_1249" data-name="Trazado 1249" d="M62.619,40.24c-1.908,0-2.728,2.76-4.593,3.157a11.677,11.677,0,0,1-2.54-.193c-.852-.016-1.87.606-1.694,1.442L70.042,44.4a7.465,7.465,0,0,1-4.453-2.1C64.7,41.43,63.862,40.24,62.619,40.24Z" transform="translate(-8.875 -14.348)" fill="#f0f0f0"/>
    <path id="Trazado_1250" data-name="Trazado 1250" d="M131.137,57.529a10.032,10.032,0,0,1-9.893-8.382h0a9.555,9.555,0,0,0,1.538-2.556,6.533,6.533,0,0,1-1.608,1.468l-.064.043v-.568a9.968,9.968,0,0,1,4.732-8.516,14.18,14.18,0,1,1,23.693-14.277v.038H149.5a6.929,6.929,0,0,1-2.68.568,9.647,9.647,0,0,0,2.98.364h.032v.038a14.342,14.342,0,0,1,.423,3.446v.123a6.431,6.431,0,0,0,2.144,4.791,10.038,10.038,0,0,1,.643,14.127,10.276,10.276,0,0,1-1.141,1.072h-.027a8.119,8.119,0,0,1-3.216-2.347A9.845,9.845,0,0,0,150.7,50.08l.038.043h-.048a10.043,10.043,0,0,1-9.9.118,10.075,10.075,0,0,1-9.657,7.288Z" transform="translate(-40.125 -2.644)" fill="#3f9eba"/>
    <path id="Trazado_1251" data-name="Trazado 1251" d="M132.667,91.81a.188.188,0,0,1-.182-.155,61.53,61.53,0,0,1-.08-12.8c.627-6.71,2.647-16.383,8.7-24.32a.188.188,0,0,1,.257-.038.182.182,0,0,1,.032.257c-6,7.873-8,17.471-8.628,24.116a60.38,60.38,0,0,0,.086,12.707.182.182,0,0,1-.155.2Z" transform="translate(-45.23 -20.95)" fill="#3f3d56"/>
    <path id="Trazado_1252" data-name="Trazado 1252" d="M138.642,70.26a.182.182,0,0,1-.182-.182.171.171,0,0,1,.075-.15,25.156,25.156,0,0,1,5.541-2.819,19.45,19.45,0,0,1,12.5-.611.177.177,0,0,1,.118.225.182.182,0,0,1-.23.118,19.128,19.128,0,0,0-12.262.611,24.771,24.771,0,0,0-5.456,2.771A.166.166,0,0,1,138.642,70.26Z" transform="translate(-48.177 -26.174)" fill="#3f3d56"/>
    <path id="Trazado_1253" data-name="Trazado 1253" d="M70.2,103.594l.616.193,4.132-13.205a.686.686,0,0,0-.82.456Z" transform="translate(-16.499 -37.701)" fill="#3f3d56"/>
    <path id="Trazado_1254" data-name="Trazado 1254" d="M93.182,75.807H90.46V67.8h2.722a1.967,1.967,0,0,1,1.967,1.967V73.84A1.967,1.967,0,0,1,93.182,75.807Z" transform="translate(-25.901 -27.138)" fill="#2f2e41"/>
    <path id="Trazado_1255" data-name="Trazado 1255" d="M94.533,71.867a.343.343,0,0,1-.343-.343V68.55h.686v2.974A.343.343,0,0,1,94.533,71.867Z" transform="translate(-27.632 -27.486)" fill="#3f3d56"/>
    <path id="Trazado_1256" data-name="Trazado 1256" d="M94.272,79.788H92.279a.434.434,0,0,1-.429-.434v-1.2a.429.429,0,0,1,.429-.429h1.994a.429.429,0,0,1,.434.429v1.2A.434.434,0,0,1,94.272,79.788Z" transform="translate(-26.546 -31.747)" fill="#3f3d56"/>
    <path id="Trazado_1257" data-name="Trazado 1257" d="M85.34,62.132a.193.193,0,0,1-.129-.048.209.209,0,0,1-.08-.15,6.608,6.608,0,0,1,.536-3,2.583,2.583,0,0,1,1-1.292,2.353,2.353,0,0,1,2.031-.075,2.053,2.053,0,0,1,.949.643,2.519,2.519,0,0,1,.413,1.27,11.314,11.314,0,0,1,.059,2.042.2.2,0,0,1-.113.166.22.22,0,0,1-.214,0h-.038a.482.482,0,0,0-.445,0,1.33,1.33,0,0,0-.139.1l-.268.22a.209.209,0,0,1-.236,0,1.522,1.522,0,0,0-.643-.193,4.1,4.1,0,0,0-.89.064l-1.747.257Z" transform="translate(-23.423 -22.301)" fill="#2f2e41"/>
    <path id="Trazado_1258" data-name="Trazado 1258" d="M83.9,117.506h-.932l-.445-3.6H83.9Z" transform="translate(-22.216 -48.537)" fill="#ffb6b6"/>
    <path id="Trazado_1259" data-name="Trazado 1259" d="M83.22,121.921h-.648l-.118-.627-.305.627H80.4a.4.4,0,0,1-.225-.723l1.4-.965V119.6l1.474.086Z" transform="translate(-21.051 -51.178)" fill="#2f2e41"/>
    <path id="Trazado_1260" data-name="Trazado 1260" d="M102.824,116.257l-.857.364-1.806-3.146,1.27-.536Z" transform="translate(-30.402 -48.087)" fill="#ffb6b6"/>
    <path id="Trazado_1261" data-name="Trazado 1261" d="M104.539,120.089l-.606.252-.354-.536-.038.691-1.608.681a.4.4,0,0,1-.488-.579l.922-1.436-.247-.579,1.393-.493Z" transform="translate(-30.971 -50.477)" fill="#2f2e41"/>
    <path id="Trazado_1262" data-name="Trazado 1262" d="M81.895,74.834l-.268,3.58-1.774,5.348-.713-.413.97-5.44.327-3.14Z" transform="translate(-20.647 -30.373)" fill="#ffb6b6"/>
    <circle id="Elipse_224" data-name="Elipse 224" cx="0.745" cy="0.745" r="0.745" transform="translate(58.048 52.677)" fill="#ffb6b6"/>
    <path id="Trazado_1263" data-name="Trazado 1263" d="M87.145,82.107V83.1s1.527,2.68.906,3.848l2.3,6.281s3.114,3.119,2.846,5.359l.177.707-2.047.89-.445-.622-3.467-5.975-2.937-5.429-.536,6.4s.359,4.984-.622,5.52l-.086.8H81.154v-.761a11.718,11.718,0,0,1-.327-4.754l-.177-8.628s.8-3.65,1.779-4.287l.359-.89Z" transform="translate(-21.348 -33.524)" fill="#2d2d44"/>
    <path id="Trazado_1264" data-name="Trazado 1264" d="M82.925,69.246l-.536-.386s-.793.311-.793.943a24,24,0,0,1-.466,2.524l1.742.938Z" transform="translate(-21.571 -27.63)" fill="#413c58"/>
    <path id="Trazado_1265" data-name="Trazado 1265" d="M93.254,75.389l-.268,3.585-2.964,4.453-.713-.413,2.16-4.55L91.8,75.33Z" transform="translate(-25.367 -30.633)" fill="#ffb6b6"/>
    <path id="Trazado_1266" data-name="Trazado 1266" d="M93.522,70l.906-.2a1.072,1.072,0,0,1,.632,1c.075.82.134,2.251.134,2.251l-1.9,1.4-.472-2.01Z" transform="translate(-26.996 -28.066)" fill="#413c58"/>
    <circle id="Elipse_225" data-name="Elipse 225" cx="0.745" cy="0.745" r="0.745" transform="translate(63.423 52.082)" fill="#ffb6b6"/>
    <circle id="Elipse_226" data-name="Elipse 226" cx="1.736" cy="1.736" r="1.736" transform="translate(62.083 36.058)" fill="#ffb7b7"/>
    <path id="Trazado_1267" data-name="Trazado 1267" d="M85.693,59.955h-.665a.193.193,0,0,1-.145-.064.214.214,0,0,1-.054-.139A2.3,2.3,0,0,1,85.9,57.919h0a2.219,2.219,0,0,1,3.049.74,2.171,2.171,0,0,1,.322,1.04.193.193,0,0,1-.182.2h0c-.766.032-1.608.048-2.765.054h0a.193.193,0,0,1-.182-.123v-.043a.118.118,0,0,0-.155-.07.134.134,0,0,0-.075.086.193.193,0,0,1-.22.15Z" transform="translate(-23.288 -22.402)" fill="#2f2e41"/>
    <path id="Trazado_1268" data-name="Trazado 1268" d="M92.923,73.989a2.342,2.342,0,0,1-.67-1.7,4.255,4.255,0,0,1,.595-2.031c.2-.381.434-.74.665-1.1.08-.118-.113-.23-.193-.113-.782,1.222-1.651,2.68-1.141,4.175a2.3,2.3,0,0,0,.59.938C92.87,74.246,93.03,74.09,92.923,73.989Z" transform="translate(-26.628 -27.689)" fill="#3f3d56"/>
    <path id="Trazado_1269" data-name="Trazado 1269" d="M66.35,103.178a2.144,2.144,0,0,0-1.184,0h0a2.187,2.187,0,0,0-.825.418l-.043.038a2.144,2.144,0,0,0-.654.991l-1.661,5.311a2.144,2.144,0,0,0-.027,1.211v.064a2.2,2.2,0,0,0,.38.729h0a2.144,2.144,0,0,0,1.04.707l3.135.981,2.953-9.443Z" transform="translate(-12.638 -43.518)" fill="#3f9eba"/>
    <path id="Trazado_1270" data-name="Trazado 1270" d="M75.933,90.72,71.9,103.62a.323.323,0,1,0,.616.193h0l3.832-12.251a.681.681,0,0,0-.413-.841Z" transform="translate(-17.279 -37.775)" fill="#3f3d56"/>
    <circle id="Elipse_227" data-name="Elipse 227" cx="0.579" cy="0.579" r="0.579" transform="translate(53.042 69.633)" fill="#3f3d56"/>
    <circle id="Elipse_228" data-name="Elipse 228" cx="0.579" cy="0.579" r="0.579" transform="translate(49.28 68.46)" fill="#3f3d56"/>
    <path id="Trazado_1271" data-name="Trazado 1271" d="M65.239,103.2c-.6,1.876-2.17,6.779-2.808,8.762h0a2.2,2.2,0,0,1-.381-.729v-.064c.691-2.144,1.838-5.788,2.342-7.5l.043-.038A2.186,2.186,0,0,1,65.239,103.2Z" transform="translate(-12.716 -43.567)" fill="#3f3d56"/>
    <path id="Trazado_1272" data-name="Trazado 1272" d="M108,123.914H52.542a.1.1,0,0,1-.1-.1.107.107,0,0,1,.1-.1H108a.107.107,0,0,1,.1.1.1.1,0,0,1-.1.1Z" transform="translate(-8.256 -53.085)" fill="#fff"/>
    <path id="Trazado_1273" data-name="Trazado 1273" d="M92.442,22.479c-.879-.874-1.72-2.069-2.964-2.069-1.908,0-2.728,2.765-4.6,3.157a12.287,12.287,0,0,1-2.535-.161c-.852,0-1.876.606-1.694,1.436l16.254-.268a7.5,7.5,0,0,1-4.464-2.1Z" transform="translate(-21.339 -5.145)" fill="#f0f0f0"/>
    <path id="Trazado_1274" data-name="Trazado 1274" d="M162.533,17.45c-1.908,0-2.728,2.765-4.593,3.157a11.345,11.345,0,0,1-2.54-.188c-.852-.016-1.87.606-1.688,1.436l16.222-.247a7.46,7.46,0,0,1-4.453-2.09C164.623,18.64,163.776,17.45,162.533,17.45Z" transform="translate(-55.245 -3.772)" fill="#f0f0f0"/>
    <path id="Trazado_1275" data-name="Trazado 1275" d="M89.754,68.171l-1.94-.906-.536-.975-1.886.107-.568.927-1.677.343.247,6.056a.943.943,0,0,0-.107.627c.059.381.359.08.059.381s-.536.145-.375.407-.22.67-.22.67,4.77,2.428,6.115-.67a6.141,6.141,0,0,0-.182-2.8C88.238,70.438,89.754,68.171,89.754,68.171Z" transform="translate(-22.323 -26.437)" fill="#413c58"/>
    <path id="Trazado_1276" data-name="Trazado 1276" d="M120.938,38a7.54,7.54,0,0,1-1.463.279c-1.683.2-3.993.273-3.993.273s-11.876.986-20.778-2.68a.876.876,0,0,1-.1-1.608,3.94,3.94,0,0,1,.59-.359h0a3.028,3.028,0,0,1,.456-.359,3.1,3.1,0,0,1,2.187-.488l23.377,3.751S122.069,37.583,120.938,38Z" transform="translate(-27.59 -11)" fill="#3f3d56"/>
    <path id="Trazado_1277" data-name="Trazado 1277" d="M135.49,36.107l4.893-3.467,2.144.37-2.111,3.671S135.544,36.724,135.49,36.107Z" transform="translate(-46.799 -10.821)" fill="#3f3d56"/>
    <path id="Trazado_1278" data-name="Trazado 1278" d="M112.5,32.813l9.748-2.733,1.57.327-4.405,1.978-1.377,1.543Z" transform="translate(-36.129 -9.633)" fill="#3f3d56"/>
    <path id="Trazado_1279" data-name="Trazado 1279" d="M119.475,39.354c-1.683.2-3.993.273-3.993.273s-11.876.986-20.778-2.68a.876.876,0,0,1-.1-1.608h0s1.924,1.3,11.1,2.379Z" transform="translate(-27.59 -12.074)" fill="#f0f0f0"/>
    <path id="Trazado_1280" data-name="Trazado 1280" d="M138.514,42.231l4.357,1.774,1.072-.118-2.6-1.961S138.23,41.256,138.514,42.231Z" transform="translate(-48.193 -15.026)" fill="#3f3d56"/>
    <path id="Trazado_1281" data-name="Trazado 1281" d="M97.151,34.943a2.621,2.621,0,0,1-.981-.579A3.344,3.344,0,0,1,96.615,34a2.01,2.01,0,0,0,.9.472C97.858,34.477,97.467,34.938,97.151,34.943Z" transform="translate(-28.551 -11.452)" fill="#f0f0f0"/>
    <path id="Trazado_1282" data-name="Trazado 1282" d="M123.885,48.082l-2.8.145-7.867-5.306-1.458-.981-.713-.482c1.334-1.12,6.763.429,6.763.429a.493.493,0,0,1,.134.391,2.514,2.514,0,0,1-.209.788v.043Z" transform="translate(-35.456 -14.725)" fill="#3f3d56"/>
  </g>
</svg>
