<svg xmlns="http://www.w3.org/2000/svg" width="151.286" height="100" viewBox="0 0 151.286 100">
  <g id="undraw_Mobile_application_mr4r" transform="translate(0 0)">
    <path id="Trazado_1179" data-name="Trazado 1179" d="M413.268,598.675q-6.274-.982-12.066-1.671l1.487-2.973c-.516-.172-2.752,1.548-2.752,1.548l1.892-8.6c-2.58.344-3.784,9.117-3.784,9.117l-2.924-2.924,1.439,3.311a266.568,266.568,0,0,0-30.578-1.54l1.272-2.545c-.516-.172-2.752,1.548-2.752,1.548l1.892-8.6c-2.58.344-3.784,9.117-3.784,9.117l-2.924-2.924,1.525,3.507a171.631,171.631,0,0,0-17.549,1.413c1.27-3.956,5.7-7.758,5.7-7.758-3.409,1.061-5.183,2.789-6.1,4.391a69.074,69.074,0,0,1,3.693-23.914s-6.881,15.481-5.848,25.8l.131,1.833a70.514,70.514,0,0,0-8.99,1.865Z" transform="translate(-302.664 -498.675)" fill="#3f3d56"/>
    <path id="Trazado_1180" data-name="Trazado 1180" d="M884.986,596.939a2.064,2.064,0,1,1,2.064-2.064A2.064,2.064,0,0,1,884.986,596.939Zm0-3.784a1.72,1.72,0,1,0,1.72,1.72,1.72,1.72,0,0,0-1.72-1.72Z" transform="translate(-758.613 -518.245)" fill="#3f3d56"/>
    <path id="Trazado_1181" data-name="Trazado 1181" d="M974.4,722.756h-3.4v-3.4h3.4Zm-3.134-.261h2.873v-2.873H971.27Z" transform="translate(-831.548 -623.026)" fill="#3f3d56"/>
    <path id="Trazado_1182" data-name="Trazado 1182" d="M311.245,717.079l-2.316-2.483,2.483-2.316,2.316,2.483Zm-1.947-2.471,1.96,2.1,2.1-1.96-1.96-2.1Z" transform="translate(-283.354 -617.164)" fill="#3f3d56"/>
    <rect id="Rect치ngulo_307" data-name="Rect치ngulo 307" width="147.558" height="0.344" transform="translate(3.728 99.538)" fill="#3f3d56"/>
    <path id="Trazado_1183" data-name="Trazado 1183" d="M471.97,182.333v11.3a.4.4,0,0,1-.394.394h-.28V252.88a6.141,6.141,0,0,1-6.141,6.141H428.38a6.14,6.14,0,0,1-6.139-6.14V196.089h-.2a.278.278,0,0,1-.279-.277v-6.43a.279.279,0,0,1,.279-.279h.2v-2.422h-.2a.292.292,0,0,1-.291-.292v-6.342a.291.291,0,0,1,.291-.291h.2v-3.306h-.208a.258.258,0,0,1-.258-.258v-3.461a.259.259,0,0,1,.258-.26h.208v-7.008a6.139,6.139,0,0,1,6.139-6.139h36.775a6.141,6.141,0,0,1,6.141,6.139V181.94h.28A.4.4,0,0,1,471.97,182.333Z" transform="translate(-376.764 -159.325)" fill="#3f3d56"/>
    <rect id="Rect치ngulo_308" data-name="Rect치ngulo 308" width="6.85" height="1.391" rx="0.695" transform="translate(65.361 3.149)" fill="#e6e8ec"/>
    <circle id="Elipse_202" data-name="Elipse 202" cx="0.789" cy="0.789" r="0.789" transform="translate(73.247 3.056)" fill="#e6e8ec"/>
    <path id="Trazado_1184" data-name="Trazado 1184" d="M485.755,183.321v86.71a3.9,3.9,0,0,1-3.9,3.894h-35.2a3.885,3.885,0,0,1-1.8-.439,3.635,3.635,0,0,1-.378-.224,3.9,3.9,0,0,1-1.718-3.232v-86.71a3.9,3.9,0,0,1,3.9-3.9h5.269v.676a3.208,3.208,0,0,0,3.208,3.208h17.9a3.208,3.208,0,0,0,3.208-3.208v-.676h5.615a3.9,3.9,0,0,1,3.9,3.9Z" transform="translate(-394.164 -175.967)" fill="#3d9db8"/>
    <path id="Trazado_1185" data-name="Trazado 1185" d="M485.755,594.353v12.412a3.9,3.9,0,0,1-3.9,3.894h-35.2a3.885,3.885,0,0,1-1.8-.439,3.639,3.639,0,0,1-.378-.224,3.9,3.9,0,0,1-1.718-3.232V594.358a32.161,32.161,0,0,1,42.995-.005Z" transform="translate(-394.164 -512.701)" fill="#fff" opacity="0.3"/>
    <path id="Trazado_1186" data-name="Trazado 1186" d="M493.755,663.937a3.853,3.853,0,0,1-1.8.442h-35.2a3.886,3.886,0,0,1-1.8-.439,21.013,21.013,0,0,1,38.805,0Z" transform="translate(-404.258 -566.421)" fill="#fff" opacity="0.3"/>
    <path id="Trazado_1187" data-name="Trazado 1187" d="M522.972,689.748a2.333,2.333,0,0,1-1.091.267h-21.3a2.351,2.351,0,0,1-1.089-.265,12.716,12.716,0,0,1,23.482,0Z" transform="translate(-441.137 -592.023)" fill="#fff" opacity="0.3"/>
    <path id="Trazado_1188" data-name="Trazado 1188" d="M472.83,345.711c-3.531,0-7.407-.672-10.432-2.941-4.212-3.159-9.4-2.991-13.013-2.293a28.359,28.359,0,0,0-6.928,2.308l-.159-.305a28.721,28.721,0,0,1,7.013-2.339c3.683-.713,8.979-.883,13.294,2.353,8.085,6.063,22.561.618,22.706.562l.123.321a41.686,41.686,0,0,1-8.378,2.04A32.033,32.033,0,0,1,472.83,345.711Z" transform="translate(-393.782 -308.685)" fill="#fff"/>
    <path id="Trazado_1189" data-name="Trazado 1189" d="M442.75,351.8s11.869-2.875,20.126,1.061,22.878-.029,22.878-.029" transform="translate(-394.156 -317.852)" fill="#fff" opacity="0.3"/>
    <path id="Trazado_1190" data-name="Trazado 1190" d="M453.58,353.772a22.612,22.612,0,0,1-4.27-.426,28.718,28.718,0,0,1-7.013-2.339l.159-.305a28.358,28.358,0,0,0,6.928,2.308c3.612.7,8.8.866,13.013-2.293,4.312-3.234,10.351-3.225,14.658-2.648a41.688,41.688,0,0,1,8.378,2.04l-.123.321c-.145-.056-14.621-5.5-22.706.562A14.781,14.781,0,0,1,453.58,353.772Z" transform="translate(-393.781 -315.359)" fill="#fff" opacity="0.3"/>
    <path id="Trazado_1191" data-name="Trazado 1191" d="M453.706,351.553a33.763,33.763,0,0,1-11.327-2.17l.131-.318c.118.049,11.884,4.8,19.971.011,8.227-4.871,22.862-.523,23.008-.479l-.1.329c-.145-.044-14.637-4.349-22.733.445A17.472,17.472,0,0,1,453.706,351.553Z" transform="translate(-393.849 -314.525)" fill="#fff" opacity="0.3"/>
    <path id="Trazado_1192" data-name="Trazado 1192" d="M442.76,350.594s11.867,3.936,20.124,0,22.871-.372,22.871-.372" transform="translate(-394.164 -316.16)" fill="#fff" opacity="0.3"/>
    <path id="Trazado_1193" data-name="Trazado 1193" d="M710.519,420.725v5.015s.4,5.616,2.608,8.425c0,0,3.611,5.115,4.112,4.012l-.618-3.632-2.09-1.984-1.1-6.218-.3-5.616Z" transform="translate(-615.865 -375.76)" fill="#ffb8b8"/>
    <path id="Trazado_1194" data-name="Trazado 1194" d="M664.642,524.941v3.711l-3.009,1.1v-4.313Z" transform="translate(-547.823 -434.644)" fill="#ffb8b8"/>
    <path id="Trazado_1195" data-name="Trazado 1195" d="M636.8,522.609l2.006,4.513-2.808,1.2-.6-4.413Z" transform="translate(-526.099 -432.713)" fill="#ffb8b8"/>
    <path id="Trazado_1196" data-name="Trazado 1196" d="M757.619,467.416s4.012,36.206,2.507,36.306-4.413,2.006-4.413.7-2.307-18.253-2.307-18.253l-2.206-8.726v12.035l2.307,13.64s-2.206,2.909-3.811,1.2l-3.41-13.339s-4.513-20.259-4.313-21.864C741.973,469.121,752.3,460.3,757.619,467.416Z" transform="translate(-641.903 -412.121)" fill="#2f2e41"/>
    <path id="Trazado_1197" data-name="Trazado 1197" d="M821.055,702.32a1.7,1.7,0,0,1,2.608-.6l1.5,1.805s3.879,3.212,1.126,3.9a7.481,7.481,0,0,1-4.536-.045,2.193,2.193,0,0,0-.9-.3,2.184,2.184,0,0,1-1.3-.9c0-.2.3-3.755.3-3.755a.633.633,0,0,1,.7.1C820.854,702.821,821.055,702.32,821.055,702.32Z" transform="translate(-706.142 -608.111)" fill="#2f2e41"/>
    <path id="Trazado_1198" data-name="Trazado 1198" d="M783.758,700.557s1.906-1.5,2.808.2c0,0,.568.2.635,0s.568-.3.568.8.545,3.855.043,3.955-1,.4-.9.8-.545.458-2.851.357-2.407-1-2.407-1a3.628,3.628,0,0,1,.6-2.006A16.27,16.27,0,0,0,783.758,700.557Z" transform="translate(-674.763 -606.95)" fill="#2f2e41"/>
    <path id="Trazado_1199" data-name="Trazado 1199" d="M744.333,321.605s-.5,3.711,2.708,5.015-7.121,5.616-8.124,3.109.2-3.31.2-3.31,1-1,.1-3.711Z" transform="translate(-639.048 -293.69)" fill="#ffb8b8"/>
    <circle id="Elipse_203" data-name="Elipse 203" cx="4.413" cy="4.413" r="4.413" transform="translate(97.662 21.696)" fill="#ffb8b8"/>
    <path id="Trazado_1200" data-name="Trazado 1200" d="M741.4,357.755a7.658,7.658,0,0,1-5.917.4c-2.909-1.2-2.808,4.012-2.808,4.012l1.5,3.911,10.43-1-.7-6.018Z" transform="translate(-634.208 -323.622)" fill="#f2f2f2"/>
    <path id="Trazado_1201" data-name="Trazado 1201" d="M719.63,337.8a3.641,3.641,0,0,1,2.5,1.927l4.814,1.5,1.2,1.7-1.4,12.336s2.608,2.507,2.608,3.911,3.209,6.218,1.6,5.616a28.169,28.169,0,0,1-4.513-2.708s-7.321.3-9.628,2.307-3.209,1.4-3.209,1.4-2.407-10.431-2.507-12.035-2.909-11.233-2.909-11.233l5.015-2.808,1.277-1.449,3.537,5.662,3.209-3.911S719.64,338.785,719.63,337.8Z" transform="translate(-613.935 -307.103)" fill="#3f3d56"/>
    <path id="Trazado_1202" data-name="Trazado 1202" d="M818.478,412.562l.6,3.209s2.708,10.029,2.307,13.439c0,0,.3,7.622-1.4,6.72s-.8-6.419-.8-6.419l-2.407-9.929-1.3-5.817Z" transform="translate(-702.763 -369.002)" fill="#ffb8b8"/>
    <path id="Trazado_1203" data-name="Trazado 1203" d="M814.04,364.168l1,.6s3.811,7.923,2.909,8.525a38.43,38.43,0,0,1-4.814,1.906Z" transform="translate(-700.832 -328.932)" fill="#3f3d56"/>
    <path id="Trazado_1204" data-name="Trazado 1204" d="M547.93,205.768l-2.357-.05-.552.953.7,9.729,3.611.8Z" transform="translate(-451.271 -170.332)" fill="#3f3d56"/>
    <path id="Trazado_1205" data-name="Trazado 1205" d="M728.844,277.058l.8-.289a5.656,5.656,0,0,0-3.977-1.518l.651-.651a2.952,2.952,0,0,0-3.037.94,12.917,12.917,0,0,0-2.188,2.793h-.852l.356.711-1.244.711,1.277-.128a3.589,3.589,0,0,0,.121,1.841l.289.8a22.937,22.937,0,0,0,1.157-2.6v.723s.8-.651.8-1.085l.434.506.217-.8,2.675.8-.434-.651,1.663.217-.651-.8s1.88.94,1.952,1.735a6.71,6.71,0,0,0,.569,1.832l.6-.7S730.941,278.143,728.844,277.058Z" transform="translate(-623.175 -254.681)" fill="#2f2e41"/>
    <ellipse id="Elipse_204" data-name="Elipse 204" cx="0.351" cy="0.903" rx="0.351" ry="0.903" transform="translate(105.435 25.257)" fill="#ffb8b8"/>
    <path id="Trazado_1206" data-name="Trazado 1206" d="M195.458,664.507a13.975,13.975,0,0,0,6.675,5.667,12.032,12.032,0,0,0-7.742-14.358A13.976,13.976,0,0,0,195.458,664.507Z" transform="translate(-188.296 -570.413)" fill="#3f3d56"/>
    <path id="Trazado_1207" data-name="Trazado 1207" d="M168.881,690.933a13.976,13.976,0,0,1,5.346,6.935,12.033,12.033,0,0,1-13.977-8.409A13.976,13.976,0,0,1,168.881,690.933Z" transform="translate(-160.25 -598.143)" fill="#3d9db8"/>
    <path id="Trazado_1208" data-name="Trazado 1208" d="M442.76,343.427s11.867-6.193,20.124,0,22.871.585,22.871.585" transform="translate(-394.164 -309.48)" fill="#fff" opacity="0.3"/>
    <circle id="Elipse_205" data-name="Elipse 205" cx="1.892" cy="1.892" r="1.892" transform="translate(68.246 93.176)" fill="#fff"/>
  </g>
</svg>
