<svg id="_7dd09a4d-2b74-438e-986e-0efea9b9300a" data-name="7dd09a4d-2b74-438e-986e-0efea9b9300a" xmlns="http://www.w3.org/2000/svg" xmlns:xlink="http://www.w3.org/1999/xlink" viewBox="0 0 734 764.5"><defs><style>.cls-1{opacity:0.7;}.cls-2{fill:url(#Degradado_sin_nombre);}.cls-26,.cls-3{opacity:0.1;}.cls-4{fill:url(#Degradado_sin_nombre_3);}.cls-27,.cls-5{opacity:0.17;}.cls-6{fill:url(#Degradado_sin_nombre_5);}.cls-7{fill:url(#Degradado_sin_nombre_6);}.cls-28,.cls-8{opacity:0.05;}.cls-9{fill:url(#Degradado_sin_nombre_20);}.cls-10{fill:url(#Degradado_sin_nombre_32);}.cls-11{fill:url(#Degradado_sin_nombre_33);}.cls-12{fill:url(#Degradado_sin_nombre_41);}.cls-13{opacity:0.6;}.cls-14{fill:url(#Degradado_sin_nombre_43);}.cls-15{fill:url(#Degradado_sin_nombre_44);}.cls-16{fill:url(#Degradado_sin_nombre_45);}.cls-17{fill:url(#Degradado_sin_nombre_46);}.cls-18,.cls-31{opacity:0.07;}.cls-19{fill:url(#Degradado_sin_nombre_48);}.cls-20{fill:url(#Degradado_sin_nombre_53);}.cls-21{fill:url(#Degradado_sin_nombre_76);}.cls-22{fill:url(#Degradado_sin_nombre_77);}.cls-23{fill:url(#Degradado_sin_nombre_78);}.cls-24{fill:url(#Degradado_sin_nombre_79);}.cls-25{fill:#535461;}.cls-26,.cls-27,.cls-28,.cls-31{isolation:isolate;}.cls-29{fill:#e0e0e0;}.cls-30{fill:#6c63ff;}</style><linearGradient id="Degradado_sin_nombre" x1="366.37" y1="227.68" x2="608.5" y2="227.68" gradientTransform="matrix(1, 0, 0, -1, 0, 764)" gradientUnits="userSpaceOnUse"><stop offset="0" stop-color="gray" stop-opacity="0.25"/><stop offset="0.54" stop-color="gray" stop-opacity="0.12"/><stop offset="1" stop-color="gray" stop-opacity="0.1"/></linearGradient><linearGradient id="Degradado_sin_nombre_3" x1="124.23" y1="227.68" x2="366.37" y2="227.68" xlink:href="#Degradado_sin_nombre"/><linearGradient id="Degradado_sin_nombre_5" x1="366.37" y1="478.69" x2="734" y2="478.69" xlink:href="#Degradado_sin_nombre"/><linearGradient id="Degradado_sin_nombre_6" x1="0" y1="478.69" x2="366.37" y2="478.69" xlink:href="#Degradado_sin_nombre"/><linearGradient id="Degradado_sin_nombre_20" x1="199.54" y1="367.05" x2="291.33" y2="367.05" xlink:href="#Degradado_sin_nombre"/><linearGradient id="Degradado_sin_nombre_32" x1="226.66" y1="337.61" x2="385.82" y2="337.61" xlink:href="#Degradado_sin_nombre"/><linearGradient id="Degradado_sin_nombre_33" x1="226.66" y1="328.73" x2="318.45" y2="328.73" xlink:href="#Degradado_sin_nombre"/><linearGradient id="Degradado_sin_nombre_41" x1="345.29" y1="329.68" x2="449.1" y2="329.68" xlink:href="#Degradado_sin_nombre"/><linearGradient id="Degradado_sin_nombre_43" x1="416.34" y1="345.14" x2="449.1" y2="345.14" xlink:href="#Degradado_sin_nombre"/><linearGradient id="Degradado_sin_nombre_44" x1="381.73" y1="311.64" x2="414.49" y2="311.64" xlink:href="#Degradado_sin_nombre"/><linearGradient id="Degradado_sin_nombre_45" x1="124.23" y1="198.53" x2="366.37" y2="198.53" xlink:href="#Degradado_sin_nombre"/><linearGradient id="Degradado_sin_nombre_46" x1="366.37" y1="198.53" y2="198.53" xlink:href="#Degradado_sin_nombre"/><linearGradient id="Degradado_sin_nombre_48" x1="512.15" y1="132.61" y2="132.61" xlink:href="#Degradado_sin_nombre"/><linearGradient id="Degradado_sin_nombre_53" x1="511.88" y1="412.98" x2="523.09" y2="412.98" xlink:href="#Degradado_sin_nombre"/><linearGradient id="Degradado_sin_nombre_76" x1="121.07" y1="291.07" x2="365.73" y2="291.07" xlink:href="#Degradado_sin_nombre"/><linearGradient id="Degradado_sin_nombre_77" x1="365.73" y1="291.07" x2="610.4" y2="291.07" xlink:href="#Degradado_sin_nombre"/><linearGradient id="Degradado_sin_nombre_78" x1="0" y1="315.79" x2="366.37" y2="315.79" xlink:href="#Degradado_sin_nombre"/><linearGradient id="Degradado_sin_nombre_79" x1="366.37" y1="315.79" x2="734" y2="315.79" xlink:href="#Degradado_sin_nombre"/></defs><title>Mesa de trabajo 1</title><g class="cls-1"><polygon class="cls-2" points="608.5 366.44 366.37 308.13 366.37 764.5 608.5 701.12 608.5 366.44"/><g class="cls-3"><polygon class="cls-2" points="608.5 366.44 366.37 308.13 366.37 764.5 608.5 701.12 608.5 366.44"/></g><polygon class="cls-4" points="124.23 366.44 366.37 308.13 366.37 764.5 124.23 702.38 124.23 366.44"/><g class="cls-5"><polygon class="cls-4" points="124.23 366.44 366.37 308.13 366.37 764.5 124.23 702.38 124.23 366.44"/></g><polygon class="cls-6" points="366.37 308.13 491.87 204.18 734 266.3 608.5 366.44 366.37 308.13"/><polygon class="cls-7" points="0 267.56 124.23 366.44 366.37 308.13 243.4 204.18 0 267.56"/><g class="cls-8"><polygon class="cls-7" points="0 267.56 124.23 366.44 366.37 308.13 243.4 204.18 0 267.56"/></g><rect class="cls-9" x="199.54" y="395.47" width="91.79" height="2.96" rx="0.8"/><rect class="cls-10" x="226.66" y="424.91" width="159.16" height="2.96" rx="0.8"/><rect class="cls-11" x="226.66" y="433.79" width="91.79" height="2.96" rx="0.8"/><rect class="cls-12" x="345.29" y="432.11" width="103.81" height="4.42"/><g class="cls-13"><rect class="cls-14" x="416.34" y="416.65" width="32.76" height="4.42"/></g><rect class="cls-15" x="381.73" y="450.15" width="32.76" height="4.42"/><polygon class="cls-16" points="124.23 366.44 124.23 702.38 366.37 764.5 366.37 431.1 124.23 366.44"/><polygon class="cls-17" points="608.5 701.12 366.37 764.5 366.37 431.1 608.5 366.44 608.5 701.12"/><g class="cls-18"><polygon class="cls-17" points="608.5 701.12 366.37 764.5 366.37 431.1 608.5 366.44 608.5 701.12"/></g><g class="cls-18"><polygon class="cls-19" points="512.15 589.56 512.15 699.85 608.5 673.23 608.5 562.94 512.15 589.56"/></g><g class="cls-13"><polygon class="cls-20" points="511.88 349.06 511.88 352.99 513.29 352.99 513.29 350.19 521.69 350.19 521.69 352.99 523.09 352.99 523.09 349.06 511.88 349.06"/></g><g class="cls-3"><polygon class="cls-21" points="121.07 540.75 256.71 574.98 365.73 486.24 365.73 431.73 123.6 370.88 121.07 540.75"/></g><g class="cls-3"><polygon class="cls-22" points="610.4 540.75 474.75 574.98 365.73 486.24 365.73 431.73 607.86 370.88 610.4 540.75"/></g><polygon class="cls-23" points="124.23 366.44 0 469.13 242.13 529.98 366.37 431.1 124.23 366.44"/><polygon class="cls-24" points="608.5 366.44 734 469.13 493.14 529.98 366.37 431.1 608.5 366.44"/><g class="cls-18"><polygon class="cls-24" points="608.5 366.44 734 469.13 493.14 529.98 366.37 431.1 608.5 366.44"/></g></g><polygon class="cls-25" points="608.94 363.36 368.88 305.54 368.88 758.01 608.94 695.17 608.94 363.36"/><polygon class="cls-26" points="608.94 363.36 368.88 305.54 368.88 758.01 608.94 695.17 608.94 363.36"/><polygon class="cls-25" points="128.83 363.36 368.88 305.54 368.88 758.01 128.83 696.42 128.83 363.36"/><polygon class="cls-27" points="128.83 361.36 368.88 303.54 368.88 758.01 128.83 696.42 128.83 361.36"/><polygon class="cls-25" points="366.88 307.54 493.31 202.48 733.37 264.07 606.94 365.36 366.88 307.54"/><polygon class="cls-25" points="7.66 267.32 130.83 365.36 370.88 307.54 248.97 204.48 7.66 267.32"/><polygon class="cls-28" points="5.66 265.32 131.83 365.36 371.88 307.54 246.97 202.48 5.66 265.32"/><rect class="cls-29" x="230.38" y="430.13" width="91.01" height="2.94" rx="0.8"/><rect class="cls-29" x="347.99" y="428.47" width="102.92" height="4.38"/><rect class="cls-30" x="384.12" y="446.35" width="32.48" height="4.38"/><polygon class="cls-25" points="128.83 363.36 128.83 696.42 368.88 758.01 372.12 427.46 128.83 363.36"/><polygon class="cls-25" points="608.94 695.17 368.88 758.01 368.88 427.46 608.94 363.36 608.94 695.17"/><polygon class="cls-31" points="608.94 695.17 368.88 758.01 368.88 427.46 608.94 363.36 608.94 695.17"/><polygon class="cls-31" points="513.42 584.57 513.42 693.91 608.94 667.52 608.94 558.17 513.42 584.57"/><polygon class="cls-26" points="125.69 536.18 260.17 570.11 368.26 482.13 368.26 428.09 128.2 367.76 125.69 536.18"/><polygon class="cls-26" points="610.83 536.18 476.35 570.11 368.26 482.13 368.26 428.09 608.32 367.76 610.83 536.18"/><polygon class="cls-25" points="128.83 363.36 5.66 465.16 245.71 525.49 368.88 427.46 128.83 363.36"/><polygon class="cls-25" points="608.94 363.36 733.37 465.16 494.57 525.49 368.88 427.46 608.94 363.36"/><polygon class="cls-31" points="608.94 363.36 733.37 465.16 494.57 525.49 368.88 427.46 608.94 363.36"/></svg>