<svg id="undraw_Security_on_ff2u_1_" data-name="undraw_Security_on_ff2u (1)" xmlns="http://www.w3.org/2000/svg" xmlns:xlink="http://www.w3.org/1999/xlink" width="103.617" height="86.689" viewBox="0 0 103.617 86.689">
  <defs>
    <linearGradient id="linear-gradient" y1="0.5" x2="1" y2="0.5" gradientUnits="objectBoundingBox">
      <stop offset="0" stop-color="gray" stop-opacity="0.251"/>
      <stop offset="0.535" stop-color="gray" stop-opacity="0.122"/>
      <stop offset="1" stop-color="gray" stop-opacity="0.102"/>
    </linearGradient>
  </defs>
  <path id="Trazado_1226" data-name="Trazado 1226" d="M364.516,76.854,332,96.865s0,41.273,32.518,63.785c32.518-22.512,32.518-63.785,32.518-63.785Z" transform="translate(-312.503 -75.559)" fill="#3f3d56"/>
  <path id="Trazado_1227" data-name="Trazado 1227" d="M599.256,76.854l-.556.342V160.26c.185.13.369.261.556.39,32.518-22.512,32.518-63.785,32.518-63.785Z" transform="translate(-547.048 -75.559)" fill="#3d9db8" opacity="0.04"/>
  <g id="Grupo_243" data-name="Grupo 243" transform="translate(41.586 36.502)" opacity="0.7">
    <path id="Trazado_1228" data-name="Trazado 1228" d="M347.475,308.093l6.13,5.619,7.6-10.963,3.065,2.554-10.664,13.517-8.684-9.706Z" transform="translate(-344.921 -302.75)" fill="url(#linear-gradient)"/>
  </g>
  <path id="Trazado_1229" data-name="Trazado 1229" d="M362.993,307.552l4.973,4.558,7.045-10.36,2.486,2.072-9.531,12.432-7.045-7.873Z" transform="translate(-317.406 -265.368)" fill="#3ad29f"/>
  <path id="Trazado_1230" data-name="Trazado 1230" d="M324.786,108.081a.443.443,0,0,1-.247-.535.211.211,0,0,0,.01-.049h0a.222.222,0,0,0-.4-.147h0a.214.214,0,0,0-.025.044.443.443,0,0,1-.535.247.212.212,0,0,0-.049-.01h0a.222.222,0,0,0-.147.4h0a.212.212,0,0,0,.044.025.443.443,0,0,1,.247.535.214.214,0,0,0-.01.049h0a.222.222,0,0,0,.4.147h0a.215.215,0,0,0,.025-.044.443.443,0,0,1,.535-.247.212.212,0,0,0,.049.01h0a.222.222,0,0,0,.147-.4h0a.213.213,0,0,0-.044-.025Z" transform="translate(-304.858 -102.299)" fill="#4d8af0" opacity="0.5"/>
  <path id="Trazado_1231" data-name="Trazado 1231" d="M178.786,433.081a.443.443,0,0,1-.247-.535.214.214,0,0,0,.01-.049h0a.222.222,0,0,0-.4-.147h0a.211.211,0,0,0-.025.044.443.443,0,0,1-.535.247.214.214,0,0,0-.049-.01h0a.222.222,0,0,0-.147.4h0a.214.214,0,0,0,.044.025.443.443,0,0,1,.247.535.215.215,0,0,0-.01.049h0a.222.222,0,0,0,.4.147h0a.213.213,0,0,0,.025-.044.443.443,0,0,1,.535-.247.214.214,0,0,0,.049.01h0a.222.222,0,0,0,.147-.4h0a.212.212,0,0,0-.044-.025Z" transform="translate(-176.461 -388.114)" fill="#4d8af0" opacity="0.5"/>
  <circle id="Elipse_213" data-name="Elipse 213" cx="0.723" cy="0.723" r="0.723" transform="translate(89.51 29.901)" fill="#f55f44" opacity="0.5"/>
  <circle id="Elipse_214" data-name="Elipse 214" cx="0.723" cy="0.723" r="0.723" transform="translate(13.913 81.625)" fill="#f55f44" opacity="0.5"/>
  <circle id="Elipse_215" data-name="Elipse 215" cx="0.723" cy="0.723" r="0.723" transform="translate(101.808 57.753)" fill="#f55f44" opacity="0.5"/>
  <path id="Trazado_1232" data-name="Trazado 1232" d="M863.786,137.081a.443.443,0,0,1-.247-.535.211.211,0,0,0,.01-.049h0a.222.222,0,0,0-.4-.147h0a.222.222,0,0,0-.025.044.443.443,0,0,1-.535.247.212.212,0,0,0-.049-.01h0a.222.222,0,0,0-.147.4h0a.212.212,0,0,0,.044.025.443.443,0,0,1,.247.535.211.211,0,0,0-.01.049h0a.222.222,0,0,0,.4.147h0a.216.216,0,0,0,.025-.044.443.443,0,0,1,.535-.247.212.212,0,0,0,.049.01h0a.222.222,0,0,0,.147-.4h0A.215.215,0,0,0,863.786,137.081Z" transform="translate(-778.871 -127.803)" fill="#4d8af0" opacity="0.5"/>
  <path id="Trazado_1233" data-name="Trazado 1233" d="M963.786,765.081a.443.443,0,0,1-.247-.535.212.212,0,0,0,.01-.049h0a.222.222,0,0,0-.4-.147h0a.221.221,0,0,0-.025.044.443.443,0,0,1-.535.247.212.212,0,0,0-.049-.01h0a.222.222,0,0,0-.147.4h0a.222.222,0,0,0,.044.025.443.443,0,0,1,.247.535.212.212,0,0,0-.01.049h0a.222.222,0,0,0,.4.147h0a.213.213,0,0,0,.025-.044.443.443,0,0,1,.535-.247.218.218,0,0,0,.049.01h0a.222.222,0,0,0,.147-.4h0A.21.21,0,0,0,963.786,765.081Z" transform="translate(-866.814 -680.085)" fill="#4d8af0" opacity="0.5"/>
  <path id="Trazado_1234" data-name="Trazado 1234" d="M171.786,243.081a.443.443,0,0,1-.247-.535.212.212,0,0,0,.01-.049h0a.222.222,0,0,0-.4-.147h0a.213.213,0,0,0-.025.044.443.443,0,0,1-.535.247.213.213,0,0,0-.049-.01h0a.222.222,0,0,0-.147.4h0a.211.211,0,0,0,.044.025.443.443,0,0,1,.247.535.213.213,0,0,0-.01.049h0a.222.222,0,0,0,.4.147h0a.212.212,0,0,0,.025-.044.443.443,0,0,1,.535-.247.214.214,0,0,0,.049.01h0a.222.222,0,0,0,.147-.4h0A.215.215,0,0,0,171.786,243.081Z" transform="translate(-170.305 -221.022)" fill="#4d8af0" opacity="0.5"/>
  <circle id="Elipse_216" data-name="Elipse 216" cx="0.723" cy="0.723" r="0.723" transform="translate(8.849 33.518)" fill="#47e6b1" opacity="0.5"/>
  <circle id="Elipse_217" data-name="Elipse 217" cx="0.723" cy="0.723" r="0.723" transform="translate(102.17 39.306)" fill="#47e6b1" opacity="0.5"/>
  <g id="Grupo_244" data-name="Grupo 244" transform="translate(69.495)" opacity="0.5">
    <rect id="Rectángulo_353" data-name="Rectángulo 353" width="0.362" height="2.05" transform="translate(0.844)" fill="#47e6b1"/>
    <rect id="Rectángulo_354" data-name="Rectángulo 354" width="0.362" height="2.05" transform="translate(2.05 0.844) rotate(90)" fill="#47e6b1"/>
  </g>
  <g id="Grupo_245" data-name="Grupo 245" transform="translate(70.822 80.299)" opacity="0.5">
    <rect id="Rectángulo_355" data-name="Rectángulo 355" width="0.362" height="2.05" transform="translate(0.844)" fill="#47e6b1"/>
    <rect id="Rectángulo_356" data-name="Rectángulo 356" width="0.362" height="2.05" transform="translate(2.05 0.844) rotate(90)" fill="#47e6b1"/>
  </g>
  <g id="Grupo_246" data-name="Grupo 246" transform="translate(2.338 84.64)" opacity="0.5">
    <rect id="Rectángulo_357" data-name="Rectángulo 357" width="0.362" height="2.05" transform="translate(0.844)" fill="#47e6b1"/>
    <rect id="Rectángulo_358" data-name="Rectángulo 358" width="0.362" height="2.05" transform="translate(2.05 0.844) rotate(90)" fill="#47e6b1"/>
  </g>
  <g id="Grupo_247" data-name="Grupo 247" transform="translate(84.687 47.745)" opacity="0.5">
    <rect id="Rectángulo_359" data-name="Rectángulo 359" width="0.362" height="2.05" transform="translate(0.844)" fill="#47e6b1"/>
    <rect id="Rectángulo_360" data-name="Rectángulo 360" width="0.362" height="2.05" transform="translate(2.05 0.844) rotate(90)" fill="#47e6b1"/>
  </g>
  <path id="Trazado_1235" data-name="Trazado 1235" d="M793.245,116.406l.777.712,1.1-1.619.388.324-1.489,1.942-1.1-1.23Z" transform="translate(-697.32 -101.574)" fill="#47e6b1" opacity="0.5"/>
</svg>
