<svg xmlns="http://www.w3.org/2000/svg" xmlns:xlink="http://www.w3.org/1999/xlink" width="500" height="259" viewBox="0 0 500 259">
  <g id="custom_1" data-name="custom – 1" clip-path="url(#clip-custom_1)">
    <g id="Grupo_149" data-name="Grupo 149" transform="translate(128.34 39.058)">
      <path id="Trazado_322" data-name="Trazado 322" d="M279.425,76.458V56.806H267.757V76.458H253.939v-30.4H243.806V23.337h-8.291V0h-17.2V23.337H210.03V46.059H200.2V18.731h-5.527V4.913H191.3V18.731H171.647v87.205H156.6V96.724h-9.212v9.212H132.343V76.458H105.322V56.806H93.654V76.458h-.614v37.768H80.757V92.118H66.018v22.108H53.736V46.059H44.217V23.337h-35V46.059H0V166.12H293.243V76.458Z" fill="#00b6e0" opacity="0.3"/>
      <rect id="Rectángulo_50" data-name="Rectángulo 50" width="12.897" height="7.369" transform="translate(5.834 53.122)" fill="#fff" opacity="0.4"/>
      <rect id="Rectángulo_51" data-name="Rectángulo 51" width="12.897" height="7.369" transform="translate(47.594 60.491) rotate(180)" fill="#fff" opacity="0.4"/>
      <rect id="Rectángulo_52" data-name="Rectángulo 52" width="12.897" height="7.369" transform="translate(5.834 67.553)" fill="#fff" opacity="0.4"/>
      <rect id="Rectángulo_53" data-name="Rectángulo 53" width="12.897" height="7.369" transform="translate(47.594 74.923) rotate(180)" fill="#fff" opacity="0.4"/>
      <rect id="Rectángulo_54" data-name="Rectángulo 54" width="12.897" height="7.369" transform="translate(5.834 81.985)" fill="#fff" opacity="0.4"/>
      <rect id="Rectángulo_55" data-name="Rectángulo 55" width="12.897" height="7.369" transform="translate(47.594 89.355) rotate(180)" fill="#fff" opacity="0.4"/>
      <rect id="Rectángulo_56" data-name="Rectángulo 56" width="12.897" height="7.369" transform="translate(5.834 96.417)" fill="#fff" opacity="0.4"/>
      <rect id="Rectángulo_57" data-name="Rectángulo 57" width="12.897" height="7.369" transform="translate(47.594 103.787) rotate(180)" fill="#fff" opacity="0.4"/>
      <rect id="Rectángulo_58" data-name="Rectángulo 58" width="12.897" height="7.369" transform="translate(5.834 110.849)" fill="#fff" opacity="0.4"/>
      <rect id="Rectángulo_59" data-name="Rectángulo 59" width="12.897" height="7.369" transform="translate(47.594 118.218) rotate(180)" fill="#fff" opacity="0.4"/>
      <rect id="Rectángulo_60" data-name="Rectángulo 60" width="12.897" height="7.369" transform="translate(5.834 125.281)" fill="#fff" opacity="0.4"/>
      <rect id="Rectángulo_61" data-name="Rectángulo 61" width="12.897" height="7.369" transform="translate(47.594 132.65) rotate(180)" fill="#fff" opacity="0.4"/>
      <rect id="Rectángulo_62" data-name="Rectángulo 62" width="12.897" height="7.369" transform="translate(5.834 139.713)" fill="#fff" opacity="0.4"/>
      <rect id="Rectángulo_63" data-name="Rectángulo 63" width="12.897" height="7.369" transform="translate(47.594 147.082) rotate(180)" fill="#fff" opacity="0.4"/>
      <rect id="Rectángulo_64" data-name="Rectángulo 64" width="30.092" height="3.685" transform="translate(58.342 121.596)" fill="#fff" opacity="0.4"/>
      <rect id="Rectángulo_65" data-name="Rectángulo 65" width="30.092" height="3.685" transform="translate(58.342 127.123)" fill="#fff" opacity="0.4"/>
      <rect id="Rectángulo_66" data-name="Rectángulo 66" width="30.092" height="3.685" transform="translate(58.342 132.65)" fill="#fff" opacity="0.4"/>
      <rect id="Rectángulo_67" data-name="Rectángulo 67" width="30.092" height="3.685" transform="translate(136.949 123.438)" fill="#fff" opacity="0.4"/>
      <rect id="Rectángulo_68" data-name="Rectángulo 68" width="30.092" height="3.685" transform="translate(136.949 128.966)" fill="#fff" opacity="0.4"/>
      <rect id="Rectángulo_69" data-name="Rectángulo 69" width="30.092" height="3.685" transform="translate(136.949 134.493)" fill="#fff" opacity="0.4"/>
      <rect id="Rectángulo_70" data-name="Rectángulo 70" width="30.092" height="3.685" transform="translate(58.342 138.177)" fill="#fff" opacity="0.4"/>
      <rect id="Rectángulo_71" data-name="Rectángulo 71" width="30.092" height="3.685" transform="translate(58.342 143.704)" fill="#fff" opacity="0.4"/>
      <rect id="Rectángulo_72" data-name="Rectángulo 72" width="30.092" height="3.685" transform="translate(58.342 149.232)" fill="#fff" opacity="0.4"/>
      <rect id="Rectángulo_73" data-name="Rectángulo 73" width="8.291" height="10.747" transform="translate(99.488 83.521)" fill="#fff" opacity="0.4"/>
      <rect id="Rectángulo_74" data-name="Rectángulo 74" width="8.291" height="10.747" transform="translate(125.895 94.268) rotate(180)" fill="#fff" opacity="0.4"/>
      <rect id="Rectángulo_75" data-name="Rectángulo 75" width="8.291" height="10.747" transform="translate(99.488 100.716)" fill="#fff" opacity="0.4"/>
      <rect id="Rectángulo_76" data-name="Rectángulo 76" width="8.291" height="10.747" transform="translate(125.895 111.463) rotate(180)" fill="#fff" opacity="0.4"/>
      <rect id="Rectángulo_77" data-name="Rectángulo 77" width="8.291" height="10.747" transform="translate(99.488 117.911)" fill="#fff" opacity="0.4"/>
      <rect id="Rectángulo_78" data-name="Rectángulo 78" width="8.291" height="10.747" transform="translate(125.895 128.658) rotate(180)" fill="#fff" opacity="0.4"/>
      <rect id="Rectángulo_79" data-name="Rectángulo 79" width="8.291" height="10.747" transform="translate(99.488 135.107)" fill="#fff" opacity="0.4"/>
      <rect id="Rectángulo_80" data-name="Rectángulo 80" width="8.291" height="10.747" transform="translate(125.895 145.854) rotate(180)" fill="#fff" opacity="0.4"/>
      <rect id="Rectángulo_81" data-name="Rectángulo 81" width="11.054" height="14.125" transform="translate(171.647 25.793)" fill="#fff" opacity="0.4"/>
      <rect id="Rectángulo_82" data-name="Rectángulo 82" width="11.054" height="14.125" transform="translate(171.647 46.059)" fill="#fff" opacity="0.4"/>
      <rect id="Rectángulo_83" data-name="Rectángulo 83" width="11.054" height="14.125" transform="translate(171.647 66.325)" fill="#fff" opacity="0.4"/>
      <rect id="Rectángulo_84" data-name="Rectángulo 84" width="11.054" height="14.125" transform="translate(171.647 86.591)" fill="#fff" opacity="0.4"/>
      <rect id="Rectángulo_85" data-name="Rectángulo 85" width="11.054" height="14.125" transform="translate(171.647 106.857)" fill="#fff" opacity="0.4"/>
      <rect id="Rectángulo_86" data-name="Rectángulo 86" width="11.054" height="14.125" transform="translate(171.647 127.123)" fill="#fff" opacity="0.4"/>
      <rect id="Rectángulo_87" data-name="Rectángulo 87" width="41.146" height="11.975" transform="translate(206.498 54.657)" fill="#fff" opacity="0.4"/>
      <rect id="Rectángulo_88" data-name="Rectángulo 88" width="41.146" height="11.975" transform="translate(206.652 80.45)" fill="#fff" opacity="0.4"/>
      <rect id="Rectángulo_89" data-name="Rectángulo 89" width="41.146" height="11.975" transform="translate(206.805 106.243)" fill="#fff" opacity="0.4"/>
      <rect id="Rectángulo_90" data-name="Rectángulo 90" width="41.146" height="11.975" transform="translate(206.959 132.036)" fill="#fff" opacity="0.4"/>
      <rect id="Rectángulo_91" data-name="Rectángulo 91" width="5.527" height="11.668" transform="translate(9.212 29.785)" fill="#fff" opacity="0.4"/>
      <rect id="Rectángulo_92" data-name="Rectángulo 92" width="13.818" height="17.81" transform="translate(279.425 83.521)" fill="#fff" opacity="0.4"/>
      <rect id="Rectángulo_93" data-name="Rectángulo 93" width="13.818" height="17.81" transform="translate(279.425 109.314)" fill="#fff" opacity="0.4"/>
      <rect id="Rectángulo_94" data-name="Rectángulo 94" width="13.818" height="17.81" transform="translate(279.425 135.107)" fill="#fff" opacity="0.4"/>
      <path id="Trazado_356" data-name="Trazado 356" d="M338.4,150.753h-2.113a1.48,1.48,0,1,0,0-2.957H319.172a1.48,1.48,0,1,0,0,2.957h2.113a1.48,1.48,0,1,0,0,2.96h-2.957a1.48,1.48,0,1,0,0,2.957H335.44a1.48,1.48,0,1,0,0-2.957H338.4a1.48,1.48,0,1,0,0-2.96Z" transform="translate(-257.125 -136.113)" fill="#252223" opacity="0.1"/>
      <path id="Trazado_357" data-name="Trazado 357" d="M584.4,271.754h-2.113a1.48,1.48,0,1,0,0-2.957H565.172a1.48,1.48,0,1,0,0,2.957h2.113a1.48,1.48,0,1,0,0,2.96h-2.957a1.48,1.48,0,1,0,0,2.957h17.113a1.48,1.48,0,1,0,0-2.957H584.4a1.48,1.48,0,1,0,0-2.96Z" transform="translate(-427.588 -219.958)" fill="#252223" opacity="0.1"/>
      <path id="Trazado_358" data-name="Trazado 358" d="M1003.4,113.754h-2.113a1.48,1.48,0,1,0,0-2.957H984.172a1.48,1.48,0,1,0,0,2.957h2.113a1.48,1.48,0,0,0,0,2.96h-2.957a1.48,1.48,0,1,0,0,2.957h17.112a1.48,1.48,0,1,0,0-2.957h2.957a1.48,1.48,0,1,0,0-2.96Z" transform="translate(-717.929 -110.474)" fill="#252223" opacity="0.1"/>
      <path id="Trazado_359" data-name="Trazado 359" d="M826.961,636.511a.461.461,0,1,0-.461-.461A.461.461,0,0,0,826.961,636.511Z" transform="translate(-610.329 -474.125)" fill="#535461"/>
      <path id="Trazado_379" data-name="Trazado 379" d="M488.937,418.92s-.808,3.906-.967,5.988" transform="translate(-375.748 -323.986)" opacity="0.1"/>
      <path id="Trazado_395" data-name="Trazado 395" d="M623.671,618.57a26.125,26.125,0,0,1-11.281,4.154" transform="translate(-461.964 -462.331)" opacity="0.1"/>
    </g>
    <g id="Grupo_150" data-name="Grupo 150" transform="translate(0 110.777)">
      <rect id="Rectángulo_95" data-name="Rectángulo 95" width="0.881" height="34.81" transform="translate(386.435 58.468)" fill="#3f3d56"/>
      <path id="Trazado_397" data-name="Trazado 397" d="M907.1,610.168c.056,12.172-8.508,22.079-8.508,22.079s-8.655-9.828-8.711-22,8.508-22.079,8.508-22.079S907.043,598,907.1,610.168Z" transform="translate(-511.65 -547.264)" fill="#4066cc"/>
      <path id="Trazado_399" data-name="Trazado 399" d="M87.844,691.232a8.869,8.869,0,0,0,3.3,4.468,7.635,7.635,0,0,0-2.7-9.992A8.868,8.868,0,0,0,87.844,691.232Z" transform="translate(-62.891 -601.825)" fill="#3f3d56"/>
      <path id="Trazado_400" data-name="Trazado 400" d="M84.122,694.154a8.868,8.868,0,0,1,2.3,5.059A7.636,7.636,0,0,1,79,691.993,8.872,8.872,0,0,1,84.122,694.154Z" transform="translate(-58.072 -605.34)" fill="#6c63ff"/>
      <path id="Trazado_401" data-name="Trazado 401" d="M699.845,691.232a8.869,8.869,0,0,0,3.3,4.468,7.635,7.635,0,0,0-2.7-9.992A8.868,8.868,0,0,0,699.845,691.232Z" transform="translate(-405.224 -601.825)" fill="#638dff"/>
      <path id="Trazado_402" data-name="Trazado 402" d="M696.122,694.154a8.868,8.868,0,0,1,2.3,5.059,7.636,7.636,0,0,1-7.417-7.22A8.872,8.872,0,0,1,696.122,694.154Z" transform="translate(-400.404 -605.34)" fill="#4066cc"/>
      <path id="Trazado_403" data-name="Trazado 403" d="M65.823,437.832,64,434.794,81.015,420.21h43.752v4.253l-15.8,17.015-18.23,3.646Z" transform="translate(-35.799 -369.166)" fill="#3f3d56"/>
      <path id="Trazado_404" data-name="Trazado 404" d="M183.983,427.564v-9.508h-5.728v3l-1.8-2.049-14.584,14.584-2.431,2.431L156.4,448.173l5.469,13.368H189.82V434.2Z" transform="translate(-87.484 -367.961)" fill="#ccc"/>
      <rect id="Rectángulo_96" data-name="Rectángulo 96" width="46.183" height="27.953" transform="translate(28.201 65.628)" fill="#f2f2f2"/>
      <rect id="Rectángulo_97" data-name="Rectángulo 97" width="9.723" height="8.507" transform="translate(58.28 74.439)" fill="#3f3d56"/>
      <rect id="Rectángulo_98" data-name="Rectángulo 98" width="8.507" height="19.445" transform="translate(45.823 74.136)" fill="#ccc"/>
      <path id="Trazado_405" data-name="Trazado 405" d="M77.3,475.653v-3.038H73.654v3.038H77.3Z" transform="translate(-41.2 -398.479)" fill="#3f3d56"/>
      <path id="Trazado_406" data-name="Trazado 406" d="M77,485.026H73.654v3.039H77.3v-3.039Z" transform="translate(-41.2 -405.422)" fill="#3f3d56"/>
      <rect id="Rectángulo_99" data-name="Rectángulo 99" width="3.646" height="3.038" transform="translate(38.531 74.136)" fill="#3f3d56"/>
      <rect id="Rectángulo_100" data-name="Rectángulo 100" width="3.646" height="3.038" transform="translate(38.531 79.604)" fill="#3f3d56"/>
      <path id="Trazado_407" data-name="Trazado 407" d="M193.831,476.343V473.3h-3.646v3.039h3.646Z" transform="translate(-106.383 -398.865)" fill="#3f3d56"/>
      <path id="Trazado_408" data-name="Trazado 408" d="M193.527,485.716h-3.342v3.038h3.646v-3.038Z" transform="translate(-106.383 -405.808)" fill="#3f3d56"/>
      <rect id="Rectángulo_101" data-name="Rectángulo 101" width="3.646" height="3.038" transform="translate(89.879 74.439)" fill="#3f3d56"/>
      <rect id="Rectángulo_102" data-name="Rectángulo 102" width="3.646" height="3.038" transform="translate(89.879 79.908)" fill="#3f3d56"/>
      <path id="Trazado_409" data-name="Trazado 409" d="M464.823,437.832,463,434.794l17.015-14.584h43.752v4.253l-15.8,17.015-18.23,3.646Z" transform="translate(-258.987 -369.166)" fill="#3f3d56"/>
      <path id="Trazado_410" data-name="Trazado 410" d="M582.983,427.564v-9.508h-5.728v3l-1.8-2.049-14.584,14.584-2.431,2.431L555.4,448.173l5.469,13.368H588.82V434.2Z" transform="translate(-310.671 -367.961)" fill="#ccc"/>
      <rect id="Rectángulo_103" data-name="Rectángulo 103" width="46.183" height="27.953" transform="translate(204.013 65.628)" fill="#f2f2f2"/>
      <rect id="Rectángulo_104" data-name="Rectángulo 104" width="9.723" height="8.507" transform="translate(234.093 74.439)" fill="#3f3d56"/>
      <rect id="Rectángulo_105" data-name="Rectángulo 105" width="8.507" height="19.445" transform="translate(221.635 74.136)" fill="#ccc"/>
      <path id="Trazado_411" data-name="Trazado 411" d="M476.3,475.653v-3.038h-3.646v3.038H476.3Z" transform="translate(-264.387 -398.479)" fill="#3f3d56"/>
      <path id="Trazado_412" data-name="Trazado 412" d="M476,485.026h-3.342v3.039H476.3v-3.039Z" transform="translate(-264.387 -405.422)" fill="#3f3d56"/>
      <rect id="Rectángulo_106" data-name="Rectángulo 106" width="3.646" height="3.038" transform="translate(214.343 74.136)" fill="#3f3d56"/>
      <rect id="Rectángulo_107" data-name="Rectángulo 107" width="3.646" height="3.038" transform="translate(214.343 79.604)" fill="#3f3d56"/>
      <path id="Trazado_413" data-name="Trazado 413" d="M592.831,476.343V473.3h-3.646v3.039h3.646Z" transform="translate(-329.57 -398.865)" fill="#3f3d56"/>
      <path id="Trazado_414" data-name="Trazado 414" d="M592.527,485.716h-3.342v3.038h3.646v-3.038Z" transform="translate(-329.57 -405.808)" fill="#3f3d56"/>
      <rect id="Rectángulo_108" data-name="Rectángulo 108" width="3.646" height="3.038" transform="translate(265.691 74.439)" fill="#3f3d56"/>
      <rect id="Rectángulo_109" data-name="Rectángulo 109" width="3.646" height="3.038" transform="translate(265.691 79.908)" fill="#3f3d56"/>
      <path id="Trazado_415" data-name="Trazado 415" d="M276.658,321.99l-3.038-2.431,17.015-15.192h43.144v13.369l-27.952,18.838Z" transform="translate(-153.054 -304.367)" fill="#3f3d56"/>
      <path id="Trazado_416" data-name="Trazado 416" d="M382.564,312.889v-8.218h-5.728v2.013l-2.138-2.316-13.976,15.192-5.469,3.646-8.48,61.954,12.788,12.789h29.721V320.166Z" transform="translate(-193.973 -304.367)" fill="#ccc"/>
      <rect id="Rectángulo_110" data-name="Rectángulo 110" width="46.183" height="78.389" transform="translate(120.566 15.192)" fill="#f2f2f2"/>
      <rect id="Rectángulo_111" data-name="Rectángulo 111" width="8.507" height="19.142" transform="translate(138.492 74.439)" fill="#ccc"/>
      <path id="Trazado_417" data-name="Trazado 417" d="M288.988,481.859v-3.038h-3.646v3.038h3.646Z" transform="translate(-159.611 -401.951)" fill="#3f3d56"/>
      <path id="Trazado_418" data-name="Trazado 418" d="M288.684,491.232h-3.342v3.039h3.646v-3.039Z" transform="translate(-159.611 -408.893)" fill="#3f3d56"/>
      <rect id="Rectángulo_112" data-name="Rectángulo 112" width="3.646" height="3.038" transform="translate(131.807 76.87)" fill="#3f3d56"/>
      <rect id="Rectángulo_113" data-name="Rectángulo 113" width="3.646" height="3.038" transform="translate(131.807 82.339)" fill="#3f3d56"/>
      <path id="Trazado_419" data-name="Trazado 419" d="M345.53,481.859v-3.038h-3.646v3.038h3.646Z" transform="translate(-191.239 -401.951)" fill="#3f3d56"/>
      <path id="Trazado_420" data-name="Trazado 420" d="M345.226,491.232h-3.342v3.039h3.646v-3.039Z" transform="translate(-191.239 -408.893)" fill="#3f3d56"/>
      <rect id="Rectángulo_114" data-name="Rectángulo 114" width="3.646" height="3.038" transform="translate(156.722 76.87)" fill="#3f3d56"/>
      <rect id="Rectángulo_115" data-name="Rectángulo 115" width="3.646" height="3.038" transform="translate(156.722 82.339)" fill="#3f3d56"/>
      <path id="Trazado_421" data-name="Trazado 421" d="M403.451,343.951v-3.038H399.8v3.038h3.646Z" transform="translate(-223.638 -324.81)" fill="#3f3d56"/>
      <path id="Trazado_422" data-name="Trazado 422" d="M403.147,353.325H399.8v3.038h3.646v-3.038Z" transform="translate(-223.638 -331.752)" fill="#3f3d56"/>
      <rect id="Rectángulo_116" data-name="Rectángulo 116" width="3.646" height="3.038" transform="translate(182.244 16.103)" fill="#3f3d56"/>
      <rect id="Rectángulo_117" data-name="Rectángulo 117" width="3.646" height="3.038" transform="translate(182.244 21.573)" fill="#3f3d56"/>
      <path id="Trazado_423" data-name="Trazado 423" d="M403.451,382.566v-3.039H399.8v3.039h3.646Z" transform="translate(-223.638 -346.409)" fill="#3f3d56"/>
      <path id="Trazado_424" data-name="Trazado 424" d="M403.147,391.939H399.8v3.038h3.646v-3.038Z" transform="translate(-223.638 -353.352)" fill="#3f3d56"/>
      <rect id="Rectángulo_118" data-name="Rectángulo 118" width="3.646" height="3.038" transform="translate(182.244 33.118)" fill="#3f3d56"/>
      <rect id="Rectángulo_119" data-name="Rectángulo 119" width="3.646" height="3.038" transform="translate(182.244 38.587)" fill="#3f3d56"/>
      <path id="Trazado_425" data-name="Trazado 425" d="M403.451,421.18v-3.039H399.8v3.039h3.646Z" transform="translate(-223.638 -368.008)" fill="#3f3d56"/>
      <path id="Trazado_426" data-name="Trazado 426" d="M403.147,430.553H399.8v3.038h3.646v-3.038Z" transform="translate(-223.638 -374.951)" fill="#3f3d56"/>
      <rect id="Rectángulo_120" data-name="Rectángulo 120" width="3.646" height="3.038" transform="translate(182.244 50.133)" fill="#3f3d56"/>
      <rect id="Rectángulo_121" data-name="Rectángulo 121" width="3.646" height="3.038" transform="translate(182.244 55.602)" fill="#3f3d56"/>
      <path id="Trazado_427" data-name="Trazado 427" d="M403.451,459.794v-3.039H399.8v3.039h3.646Z" transform="translate(-223.638 -389.608)" fill="#3f3d56"/>
      <path id="Trazado_428" data-name="Trazado 428" d="M403.147,469.167H399.8v3.038h3.646v-3.038Z" transform="translate(-223.638 -396.551)" fill="#3f3d56"/>
      <rect id="Rectángulo_122" data-name="Rectángulo 122" width="3.646" height="3.038" transform="translate(182.244 67.147)" fill="#3f3d56"/>
      <rect id="Rectángulo_123" data-name="Rectángulo 123" width="3.646" height="3.038" transform="translate(182.244 72.616)" fill="#3f3d56"/>
      <rect id="Rectángulo_124" data-name="Rectángulo 124" width="35.245" height="7.292" transform="translate(125.731 19.142)" fill="#3f3d56"/>
      <rect id="Rectángulo_125" data-name="Rectángulo 125" width="35.245" height="7.292" transform="translate(125.731 33.726)" fill="#3f3d56"/>
      <rect id="Rectángulo_126" data-name="Rectángulo 126" width="35.245" height="7.292" transform="translate(125.731 48.31)" fill="#3f3d56"/>
      <rect id="Rectángulo_127" data-name="Rectángulo 127" width="35.245" height="7.292" transform="translate(125.731 62.894)" fill="#3f3d56"/>
      <path id="Trazado_429" data-name="Trazado 429" d="M679.658,321.99l-3.038-2.431,17.015-15.192h43.144v13.369l-27.952,18.838Z" transform="translate(-378.479 -304.367)" fill="#3f3d56"/>
      <path id="Trazado_430" data-name="Trazado 430" d="M785.564,312.889v-8.218h-5.728v2.013l-2.138-2.316-13.976,15.192-5.469,3.646-8.48,61.954,12.789,12.789h29.721V320.166Z" transform="translate(-419.398 -304.367)" fill="#ccc"/>
      <rect id="Rectángulo_128" data-name="Rectángulo 128" width="46.183" height="78.389" transform="translate(298.141 15.192)" fill="#f2f2f2"/>
      <rect id="Rectángulo_129" data-name="Rectángulo 129" width="8.507" height="19.142" transform="translate(316.067 74.439)" fill="#ccc"/>
      <path id="Trazado_431" data-name="Trazado 431" d="M691.988,481.859v-3.038h-3.646v3.038h3.646Z" transform="translate(-385.036 -401.951)" fill="#3f3d56"/>
      <path id="Trazado_432" data-name="Trazado 432" d="M691.684,491.232h-3.342v3.039h3.646v-3.039Z" transform="translate(-385.036 -408.893)" fill="#3f3d56"/>
      <rect id="Rectángulo_130" data-name="Rectángulo 130" width="3.646" height="3.038" transform="translate(309.383 76.87)" fill="#3f3d56"/>
      <rect id="Rectángulo_131" data-name="Rectángulo 131" width="3.646" height="3.038" transform="translate(309.383 82.339)" fill="#3f3d56"/>
      <path id="Trazado_433" data-name="Trazado 433" d="M748.53,481.859v-3.038h-3.646v3.038h3.646Z" transform="translate(-416.663 -401.951)" fill="#3f3d56"/>
      <path id="Trazado_434" data-name="Trazado 434" d="M748.226,491.232h-3.342v3.039h3.646v-3.039Z" transform="translate(-416.663 -408.893)" fill="#3f3d56"/>
      <rect id="Rectángulo_132" data-name="Rectángulo 132" width="3.646" height="3.038" transform="translate(334.297 76.87)" fill="#3f3d56"/>
      <rect id="Rectángulo_133" data-name="Rectángulo 133" width="3.646" height="3.038" transform="translate(334.297 82.339)" fill="#3f3d56"/>
      <path id="Trazado_435" data-name="Trazado 435" d="M806.451,343.951v-3.038H802.8v3.038h3.646Z" transform="translate(-449.062 -324.81)" fill="#3f3d56"/>
      <path id="Trazado_436" data-name="Trazado 436" d="M806.147,353.325H802.8v3.038h3.646v-3.038Z" transform="translate(-449.062 -331.752)" fill="#3f3d56"/>
      <rect id="Rectángulo_134" data-name="Rectángulo 134" width="3.646" height="3.038" transform="translate(359.819 16.103)" fill="#3f3d56"/>
      <rect id="Rectángulo_135" data-name="Rectángulo 135" width="3.646" height="3.038" transform="translate(359.819 21.573)" fill="#3f3d56"/>
      <path id="Trazado_437" data-name="Trazado 437" d="M806.451,382.566v-3.039H802.8v3.039h3.646Z" transform="translate(-449.062 -346.409)" fill="#3f3d56"/>
      <path id="Trazado_438" data-name="Trazado 438" d="M806.147,391.939H802.8v3.038h3.646v-3.038Z" transform="translate(-449.062 -353.352)" fill="#3f3d56"/>
      <rect id="Rectángulo_136" data-name="Rectángulo 136" width="3.646" height="3.038" transform="translate(359.819 33.118)" fill="#3f3d56"/>
      <rect id="Rectángulo_137" data-name="Rectángulo 137" width="3.646" height="3.038" transform="translate(359.819 38.587)" fill="#3f3d56"/>
      <path id="Trazado_439" data-name="Trazado 439" d="M806.451,421.18v-3.039H802.8v3.039h3.646Z" transform="translate(-449.062 -368.008)" fill="#3f3d56"/>
      <path id="Trazado_440" data-name="Trazado 440" d="M806.147,430.553H802.8v3.038h3.646v-3.038Z" transform="translate(-449.062 -374.951)" fill="#3f3d56"/>
      <rect id="Rectángulo_138" data-name="Rectángulo 138" width="3.646" height="3.038" transform="translate(359.819 50.133)" fill="#3f3d56"/>
      <rect id="Rectángulo_139" data-name="Rectángulo 139" width="3.646" height="3.038" transform="translate(359.819 55.602)" fill="#3f3d56"/>
      <path id="Trazado_441" data-name="Trazado 441" d="M806.451,459.794v-3.039H802.8v3.039h3.646Z" transform="translate(-449.062 -389.608)" fill="#3f3d56"/>
      <path id="Trazado_442" data-name="Trazado 442" d="M806.147,469.167H802.8v3.038h3.646v-3.038Z" transform="translate(-449.062 -396.551)" fill="#3f3d56"/>
      <rect id="Rectángulo_140" data-name="Rectángulo 140" width="3.646" height="3.038" transform="translate(359.819 67.147)" fill="#3f3d56"/>
      <rect id="Rectángulo_141" data-name="Rectángulo 141" width="3.646" height="3.038" transform="translate(359.819 72.616)" fill="#3f3d56"/>
      <rect id="Rectángulo_142" data-name="Rectángulo 142" width="35.245" height="7.292" transform="translate(303.306 19.142)" fill="#3f3d56"/>
      <rect id="Rectángulo_143" data-name="Rectángulo 143" width="35.245" height="7.292" transform="translate(303.306 33.726)" fill="#3f3d56"/>
      <rect id="Rectángulo_144" data-name="Rectángulo 144" width="35.245" height="7.292" transform="translate(303.306 48.31)" fill="#3f3d56"/>
      <rect id="Rectángulo_145" data-name="Rectángulo 145" width="35.245" height="7.292" transform="translate(303.306 62.894)" fill="#3f3d56"/>
      <path id="Trazado_443" data-name="Trazado 443" d="M900.658,321.99l-3.038-2.431,17.015-15.192H957.78v13.369l-27.953,18.838Z" transform="translate(-502.099 -304.367)" fill="#3f3d56"/>
      <path id="Trazado_444" data-name="Trazado 444" d="M1006.564,312.889v-8.218h-5.728v2.013l-2.137-2.316-13.977,15.192-5.469,3.646-8.48,61.954,12.789,12.789h29.723V320.166Z" transform="translate(-543.018 -304.367)" fill="#ccc"/>
      <rect id="Rectángulo_146" data-name="Rectángulo 146" width="46.183" height="78.389" transform="translate(395.521 15.192)" fill="#f2f2f2"/>
      <rect id="Rectángulo_147" data-name="Rectángulo 147" width="8.507" height="19.142" transform="translate(413.447 74.439)" fill="#ccc"/>
      <path id="Trazado_445" data-name="Trazado 445" d="M912.988,481.859v-3.038h-3.646v3.038h3.646Z" transform="translate(-508.656 -401.951)" fill="#3f3d56"/>
      <path id="Trazado_446" data-name="Trazado 446" d="M912.684,491.232h-3.342v3.039h3.646v-3.039Z" transform="translate(-508.656 -408.893)" fill="#3f3d56"/>
      <rect id="Rectángulo_148" data-name="Rectángulo 148" width="3.646" height="3.038" transform="translate(406.763 76.87)" fill="#3f3d56"/>
      <rect id="Rectángulo_149" data-name="Rectángulo 149" width="3.646" height="3.038" transform="translate(406.763 82.339)" fill="#3f3d56"/>
      <path id="Trazado_447" data-name="Trazado 447" d="M969.53,481.859v-3.038h-3.646v3.038h3.646Z" transform="translate(-540.283 -401.951)" fill="#3f3d56"/>
      <path id="Trazado_448" data-name="Trazado 448" d="M969.226,491.232h-3.342v3.039h3.646v-3.039Z" transform="translate(-540.283 -408.893)" fill="#3f3d56"/>
      <rect id="Rectángulo_150" data-name="Rectángulo 150" width="3.646" height="3.038" transform="translate(431.677 76.87)" fill="#3f3d56"/>
      <rect id="Rectángulo_151" data-name="Rectángulo 151" width="3.646" height="3.038" transform="translate(431.677 82.339)" fill="#3f3d56"/>
      <path id="Trazado_449" data-name="Trazado 449" d="M1027.448,343.951v-3.038H1023.8v3.038h3.648Z" transform="translate(-572.68 -324.81)" fill="#3f3d56"/>
      <path id="Trazado_450" data-name="Trazado 450" d="M1027.144,353.325H1023.8v3.038h3.648v-3.038Z" transform="translate(-572.68 -331.752)" fill="#3f3d56"/>
      <rect id="Rectángulo_152" data-name="Rectángulo 152" width="3.646" height="3.038" transform="translate(457.201 16.103)" fill="#3f3d56"/>
      <rect id="Rectángulo_153" data-name="Rectángulo 153" width="3.646" height="3.038" transform="translate(457.201 21.573)" fill="#3f3d56"/>
      <path id="Trazado_451" data-name="Trazado 451" d="M1027.448,382.566v-3.039H1023.8v3.039h3.648Z" transform="translate(-572.68 -346.409)" fill="#3f3d56"/>
      <path id="Trazado_452" data-name="Trazado 452" d="M1027.144,391.939H1023.8v3.038h3.648v-3.038Z" transform="translate(-572.68 -353.352)" fill="#3f3d56"/>
      <rect id="Rectángulo_154" data-name="Rectángulo 154" width="3.646" height="3.038" transform="translate(457.201 33.118)" fill="#3f3d56"/>
      <rect id="Rectángulo_155" data-name="Rectángulo 155" width="3.646" height="3.038" transform="translate(457.201 38.587)" fill="#3f3d56"/>
      <path id="Trazado_453" data-name="Trazado 453" d="M1027.448,421.18v-3.039H1023.8v3.039h3.648Z" transform="translate(-572.68 -368.008)" fill="#3f3d56"/>
      <path id="Trazado_454" data-name="Trazado 454" d="M1027.144,430.553H1023.8v3.038h3.648v-3.038Z" transform="translate(-572.68 -374.951)" fill="#3f3d56"/>
      <rect id="Rectángulo_156" data-name="Rectángulo 156" width="3.646" height="3.038" transform="translate(457.201 50.133)" fill="#3f3d56"/>
      <rect id="Rectángulo_157" data-name="Rectángulo 157" width="3.646" height="3.038" transform="translate(457.201 55.602)" fill="#3f3d56"/>
      <path id="Trazado_455" data-name="Trazado 455" d="M1027.448,459.794v-3.039H1023.8v3.039h3.648Z" transform="translate(-572.68 -389.608)" fill="#3f3d56"/>
      <path id="Trazado_456" data-name="Trazado 456" d="M1027.144,469.167H1023.8v3.038h3.648v-3.038Z" transform="translate(-572.68 -396.551)" fill="#3f3d56"/>
      <rect id="Rectángulo_158" data-name="Rectángulo 158" width="3.646" height="3.038" transform="translate(457.201 67.147)" fill="#3f3d56"/>
      <rect id="Rectángulo_159" data-name="Rectángulo 159" width="3.646" height="3.038" transform="translate(457.201 72.616)" fill="#3f3d56"/>
      <rect id="Rectángulo_160" data-name="Rectángulo 160" width="35.245" height="7.292" transform="translate(400.686 19.142)" fill="#3f3d56"/>
      <rect id="Rectángulo_161" data-name="Rectángulo 161" width="35.245" height="7.292" transform="translate(400.686 33.726)" fill="#3f3d56"/>
      <rect id="Rectángulo_162" data-name="Rectángulo 162" width="35.245" height="7.292" transform="translate(400.686 48.31)" fill="#3f3d56"/>
      <rect id="Rectángulo_163" data-name="Rectángulo 163" width="35.245" height="7.292" transform="translate(400.686 62.894)" fill="#3f3d56"/>
      <rect id="Rectángulo_164" data-name="Rectángulo 164" width="501" height="0.881" transform="translate(0 93.278)" fill="#3f3d56"/>
      <rect id="Rectángulo_165" data-name="Rectángulo 165" width="0.881" height="34.81" transform="translate(111.04 58.468)" fill="#3f3d56"/>
      <path id="Trazado_457" data-name="Trazado 457" d="M282.1,610.168c.056,12.172-8.508,22.079-8.508,22.079s-8.655-9.828-8.711-22,8.508-22.079,8.508-22.079S282.043,598,282.1,610.168Z" transform="translate(-162.045 -547.264)" fill="#638dff"/>
      <rect id="Rectángulo_166" data-name="Rectángulo 166" width="0.881" height="34.81" transform="translate(199.166 58.468)" fill="#3f3d56"/>
      <path id="Trazado_458" data-name="Trazado 458" d="M482.1,610.168c.056,12.172-8.508,22.079-8.508,22.079s-8.655-9.828-8.711-22,8.508-22.079,8.508-22.079S482.043,598,482.1,610.168Z" transform="translate(-273.919 -547.264)" fill="#3e63c7"/>
      <rect id="Rectángulo_167" data-name="Rectángulo 167" width="0.881" height="34.81" transform="translate(374.979 58.468)" fill="#3f3d56"/>
      <path id="Trazado_459" data-name="Trazado 459" d="M881.1,610.168c.056,12.172-8.508,22.079-8.508,22.079s-8.655-9.828-8.711-22,8.508-22.079,8.508-22.079S881.043,598,881.1,610.168Z" transform="translate(-497.106 -547.264)" fill="#638dff"/>
      <g id="undraw_towing_6yy4" transform="translate(111.084 59.561)">
        <path id="Trazado_1179" data-name="Trazado 1179" d="M105.281,372.458l5.59-8.871-5.593,9.838,0,1.011q-.6-.007-1.184-.046l.456-12.985-.006-.1.01-.019.043-1.227-5.845-9.723,5.851,8.8.018.26.344-9.811-5.025-10.06L105,347.863l.236-20.335v0l.115,16.033,4.8-6.415-4.806,7.8-.022,8.781,4.455-8.481-4.458,9.772-.012,4.883,6.471-11.809L105.307,361.6Z" transform="translate(-98.749 -309.867)" fill="#d0cde1"/>
        <rect id="Rectángulo_306" data-name="Rectángulo 306" width="1.572" height="11.158" transform="translate(83.424 25.146)" fill="#3f3d56"/>
        <rect id="Rectángulo_307" data-name="Rectángulo 307" width="1.572" height="62.765" transform="translate(26.251 2.855) rotate(-67.908)" fill="#3f3d56"/>
        <path id="Trazado_1180" data-name="Trazado 1180" d="M229.282,665.979c-2.435,4.067-130.225,3.725-130.031,0C101.685,661.912,229.475,662.253,229.282,665.979Z" transform="translate(-99.185 -601.911)" fill="#d0cde1"/>
        <rect id="Rectángulo_308" data-name="Rectángulo 308" width="13.673" height="5.343" transform="translate(100.397 47.62)" fill="#3f3d56"/>
        <rect id="Rectángulo_309" data-name="Rectángulo 309" width="67.422" height="5.972" transform="translate(45.391 52.334)" fill="#3f3d56"/>
        <path id="Trazado_1181" data-name="Trazado 1181" d="M675.387,289.81H659.2V269.458h12.1l4.086,10.265Z" transform="translate(-573.654 -234.49)" fill="#d0cde1"/>
        <rect id="Rectángulo_310" data-name="Rectángulo 310" width="6.915" height="6.915" transform="translate(88.06 36.225)" fill="#fff"/>
        <path id="Trazado_1182" data-name="Trazado 1182" d="M742.318,286.667h-4.4v-6.915H739.8Z" transform="translate(-642.157 -243.448)" fill="#fff"/>
        <rect id="Rectángulo_311" data-name="Rectángulo 311" width="1.572" height="2.986" transform="translate(88.375 47.069)" fill="#3f3d56"/>
        <path id="Trazado_1183" data-name="Trazado 1183" d="M748.212,313.661h.079a1.493,1.493,0,0,1,1.493,1.493h0a1.493,1.493,0,0,1-1.493,1.493h-.078Z" transform="translate(-651.115 -272.957)" fill="#3f3d56"/>
        <path id="Trazado_1184" data-name="Trazado 1184" d="M297.7,403.278h.079a1.493,1.493,0,0,1,1.493,1.493h0a1.493,1.493,0,0,1-1.493,1.493H297.7Z" transform="translate(-259.069 -350.944)" fill="#3f3d56"/>
        <path id="Trazado_1185" data-name="Trazado 1185" d="M878.961,541a7.776,7.776,0,0,1,6.044,3.009h3.071l-2.986-8.318-13.909-2.743.393,11.061h1.343A7.776,7.776,0,0,1,878.961,541Z" transform="translate(-770.942 -488.685)" fill="#d0cde1"/>
        <circle id="Elipse_202" data-name="Elipse 202" cx="6.836" cy="6.836" r="6.836" transform="translate(101.34 50.448)" fill="#3f3d56"/>
        <circle id="Elipse_203" data-name="Elipse 203" cx="3.598" cy="3.598" r="3.598" transform="translate(104.579 53.687)" fill="#d0cde1"/>
        <circle id="Elipse_204" data-name="Elipse 204" cx="5.972" cy="5.972" r="5.972" transform="translate(40.441 52.099)" fill="#3f3d56"/>
        <circle id="Elipse_205" data-name="Elipse 205" cx="3.143" cy="3.143" r="3.143" transform="translate(43.27 54.928)" fill="#d0cde1"/>
        <rect id="Rectángulo_312" data-name="Rectángulo 312" width="3.3" height="23.81" transform="translate(82.717 32.139)" fill="#3f3d56"/>
        <rect id="Rectángulo_313" data-name="Rectángulo 313" width="47.462" height="1.414" transform="translate(38.555 51.627)" fill="#3f3d56"/>
        <rect id="Rectángulo_314" data-name="Rectángulo 314" width="53.642" height="1.414" transform="translate(13.155 56.818) rotate(-15.22)" fill="#3f3d56"/>
        <rect id="Rectángulo_315" data-name="Rectángulo 315" width="1.1" height="9.195" transform="translate(60.496 45.103) rotate(-36.311)" fill="#3f3d56"/>
        <rect id="Rectángulo_316" data-name="Rectángulo 316" width="1.572" height="0.629" transform="translate(96.468 43.533)" fill="#3f3d56"/>
        <path id="Trazado_1186" data-name="Trazado 1186" d="M608.543,521.526H587.955a.157.157,0,0,1-.045-.308l20.117-5.972a.157.157,0,0,1,.2.138l.472,5.972a.157.157,0,0,1-.157.169Zm-19.506-.314h19.336l-.443-5.609Z" transform="translate(-524.333 -473.278)" fill="#3f3d56"/>
        <path id="Trazado_1187" data-name="Trazado 1187" d="M286.741,370.841h0l-4.512-.042a.157.157,0,0,1-.155-.175l2.344-20.454a.157.157,0,0,1,.156-.139h0a.157.157,0,0,1,.156.141l2.167,20.5a.157.157,0,0,1-.156.174Zm-4.336-.355,4.161.039-2-18.9Z" transform="translate(-258.282 -329.508)" fill="#3f3d56"/>
        <path id="Trazado_1188" data-name="Trazado 1188" d="M0,0H.079A1.493,1.493,0,0,1,1.572,1.493h0A1.493,1.493,0,0,1,.079,2.986H0Z" transform="matrix(-0.935, 0.354, -0.354, -0.935, 115.176, 49.917)" fill="#3f3d56"/>
        <rect id="Rectángulo_317" data-name="Rectángulo 317" width="4.552" height="0.723" transform="translate(15.196 52.061) rotate(-15.637)" fill="#3f3d56"/>
        <path id="Trazado_1189" data-name="Trazado 1189" d="M239.5,428.994l-.846.462-34.376,9.622-.51-.634a7.549,7.549,0,0,1-1.633-3.782,3.176,3.176,0,0,1,.688-2.793l-1.313-10.588,19.012-5.347,9.017,3.88s3.454-1.032,6,.789a5.722,5.722,0,0,1,2,2.713l.416,1.2Z" transform="translate(-188.175 -386.859)" fill="#638dff"/>
        <circle id="Elipse_206" data-name="Elipse 206" cx="4.408" cy="4.408" r="4.408" transform="translate(39.319 39.667)" fill="#3f3d56"/>
        <circle id="Elipse_207" data-name="Elipse 207" cx="2.32" cy="2.32" r="2.32" transform="translate(41.407 41.755)" fill="#d0cde1"/>
        <circle id="Elipse_208" data-name="Elipse 208" cx="4.408" cy="4.408" r="4.408" transform="translate(18.373 45.529)" fill="#3f3d56"/>
        <circle id="Elipse_209" data-name="Elipse 209" cx="2.32" cy="2.32" r="2.32" transform="translate(20.461 47.617)" fill="#d0cde1"/>
        <path id="Trazado_1190" data-name="Trazado 1190" d="M195.557,236.626l-13.639,3.818-1.149-4.106,8.7-2.435Z" transform="translate(-157.31 -203.549)" fill="#fff"/>
        <rect id="Rectángulo_318" data-name="Rectángulo 318" width="5.636" height="4.263" transform="translate(16.361 34.776) rotate(-15.637)" fill="#fff"/>
        <rect id="Rectángulo_319" data-name="Rectángulo 319" width="0.723" height="1.373" transform="translate(25.465 39.956) rotate(-15.637)" fill="#3f3d56"/>
        <rect id="Rectángulo_320" data-name="Rectángulo 320" width="0.723" height="1.373" transform="translate(37.116 34.669) rotate(74.363)" fill="#3f3d56"/>
        <path id="Trazado_1191" data-name="Trazado 1191" d="M0,0H.079A1.51,1.51,0,0,1,1.59,1.51h0A1.51,1.51,0,0,1,.08,3.021H0V0Z" transform="translate(35.553 32.3) rotate(-15.637)" fill="#3f3d56"/>
        <path id="Trazado_1192" data-name="Trazado 1192" d="M460.845,455.826a2.334,2.334,0,0,1-2.416-3.914,5.722,5.722,0,0,1,2,2.713Z" transform="translate(-411.069 -418.168)" fill="#3f3d56"/>
        <rect id="Rectángulo_321" data-name="Rectángulo 321" width="1.572" height="22.945" transform="translate(25.432 1.414)" fill="#3f3d56"/>
        <circle id="Elipse_210" data-name="Elipse 210" cx="2.2" cy="2.2" r="2.2" transform="translate(24.018 0)" fill="#3f3d56"/>
        <circle id="Elipse_211" data-name="Elipse 211" cx="2.2" cy="2.2" r="2.2" transform="translate(82.01 23.26)" fill="#3f3d56"/>
      </g>
    </g>
    <g id="Grupo_160" data-name="Grupo 160" transform="translate(340.097 172.492)">
      <g id="Grupo_158" data-name="Grupo 158" transform="translate(49.488 13.22)" opacity="0.5">
        <path id="Trazado_756" data-name="Trazado 756" d="M753.711,259.512a1.582,1.582,0,0,0-1.094,1.18c-.46,1.535.6,2.585.256,4.179a3.119,3.119,0,0,1-.537,1.172,7.994,7.994,0,0,1-1.342,1.26,4,4,0,0,0-1.18,1.937,5.362,5.362,0,0,0-.053,2.518,10,10,0,0,0,.672,1.765,13.028,13.028,0,0,1,.691,2.226,5.418,5.418,0,0,1,.154,1.129,9.957,9.957,0,0,1-.14,1.51l-.65,4.537a13.468,13.468,0,0,0-.177,1.793,8.873,8.873,0,0,0,.208,1.791,7.69,7.69,0,0,0,1,3.079c.524.633,1.413.414,1.96-.879.52-1.228.531-2.87.99-4.184.723-2.072,2.161-2.349,2.959-4.323.767-1.894.531-4.221.921-6.379.278-1.548.87-2.96,1.22-4.49a14.232,14.232,0,0,0,.051-6.184,8.214,8.214,0,0,0-1.924-3.738,1.872,1.872,0,0,0-1.125-.739c-.452-.035-.844.537-1.293.705C754.753,259.571,754.235,259.363,753.711,259.512Z" transform="translate(-749.636 -258.67)" fill="#638dff"/>
        <path id="Trazado_757" data-name="Trazado 757" d="M786.676,260.09s-.768,19.592-3.986,31.146" transform="translate(-780.153 -259.981)" fill="none" stroke="#535461" stroke-miterlimit="10" stroke-width="2"/>
        <path id="Trazado_758" data-name="Trazado 758" d="M788.22,286.26a10.981,10.981,0,0,1,2.788,9.1" transform="translate(-785.259 -284.143)" fill="none" stroke="#535461" stroke-miterlimit="10" stroke-width="2"/>
        <path id="Trazado_759" data-name="Trazado 759" d="M750.6,402.38s5.649,1.136,5.23,4.514" transform="translate(-750.526 -391.35)" fill="none" stroke="#535461" stroke-miterlimit="10" stroke-width="2"/>
        <path id="Trazado_760" data-name="Trazado 760" d="M827.782,316.41s-2.285,2-4.322,7.668" transform="translate(-817.794 -311.979)" fill="none" stroke="#535461" stroke-miterlimit="10" stroke-width="2"/>
        <path id="Trazado_761" data-name="Trazado 761" d="M816.841,502.825s-1.56,1.228-2.811-3.055" transform="translate(-809.088 -481.266)" fill="none" stroke="#535461" stroke-miterlimit="10" stroke-width="2"/>
        <path id="Trazado_762" data-name="Trazado 762" d="M763,543.168s3.18-.415,3.474-2.408" transform="translate(-761.974 -519.11)" fill="none" stroke="#535461" stroke-miterlimit="10" stroke-width="2"/>
      </g>
      <path id="Trazado_763" data-name="Trazado 763" d="M817.026,87.347a2.445,2.445,0,0,0-2.124,1.607c-.764,2.207,1.559,3.878,1.024,6.184a3.467,3.467,0,0,1-.972,1.662,12.968,12.968,0,0,1-2.629,1.7,4.953,4.953,0,0,0-2.213,2.713,5.72,5.72,0,0,0,.188,3.7,14.777,14.777,0,0,0,1.6,2.679,18.155,18.155,0,0,1,1.7,3.355,6.452,6.452,0,0,1,.449,1.68,10.166,10.166,0,0,1-.11,2.207l-.807,6.6a13.736,13.736,0,0,0-.154,2.619,10.323,10.323,0,0,0,.643,2.661c.614,1.794,1.271,3.659,2.428,4.653s2.974.777,3.952-1.062c.931-1.751.76-4.164,1.553-6.045,1.251-2.963,4.194-3.2,5.61-6.016,1.359-2.7.6-6.151,1.144-9.287.391-2.247,1.45-4.256,2-6.467a15.242,15.242,0,0,0-.627-9.1,13.956,13.956,0,0,0-4.425-5.732,4.97,4.97,0,0,0-2.416-1.222c-.939-.1-1.689.686-2.593.885C819.191,87.557,818.094,87.189,817.026,87.347Z" transform="translate(-755.775 -86.427)" fill="#638dff"/>
      <path id="Trazado_764" data-name="Trazado 764" d="M912.956,88.12s.741,28.762-4.556,45.395" transform="translate(-846.727 -87.99)" fill="none" stroke="#535461" stroke-miterlimit="10" stroke-width="2"/>
      <path id="Trazado_765" data-name="Trazado 765" d="M874.83,121.16s7.492,5.021,6.851,13.732" transform="translate(-815.733 -118.494)" fill="none" stroke="#535461" stroke-miterlimit="10" stroke-width="2"/>
      <path id="Trazado_766" data-name="Trazado 766" d="M810.75,287.71s11.826,2.342,11.359,7.267" transform="translate(-756.571 -272.262)" fill="none" stroke="#535461" stroke-miterlimit="10" stroke-width="2"/>
      <path id="Trazado_767" data-name="Trazado 767" d="M971.225,176.42S966.73,179.1,963.19,187.2" transform="translate(-897.312 -169.513)" fill="none" stroke="#535461" stroke-miterlimit="10" stroke-width="2"/>
      <path id="Trazado_768" data-name="Trazado 768" d="M959.75,443.445s-3.082,1.622-6.181-4.835" transform="translate(-888.43 -411.58)" fill="none" stroke="#535461" stroke-miterlimit="10" stroke-width="2"/>
      <path id="Trazado_769" data-name="Trazado 769" d="M856.47,501.473s6.534-.235,6.907-3.133" transform="translate(-798.782 -466.726)" fill="none" stroke="#535461" stroke-miterlimit="10" stroke-width="2"/>
      <ellipse id="Elipse_90" data-name="Elipse 90" cx="32.823" cy="3.153" rx="32.823" ry="3.153" transform="translate(4.647 41.727)" fill="#638dff" opacity="0.1"/>
      <path id="Trazado_770" data-name="Trazado 770" d="M150.828,622.29s.643.844-.3,2.111-1.715,2.342-1.4,3.134c0,0,1.418-2.358,2.573-2.391S152.1,623.708,150.828,622.29Z" transform="translate(-145.666 -581.163)" fill="#638dff"/>
      <path id="Trazado_771" data-name="Trazado 771" d="M151.243,622.29a1.043,1.043,0,0,1,.131.264c1.127,1.323,1.726,2.558.644,2.59-1.008.029-2.218,1.832-2.508,2.288a.979.979,0,0,0,.035.1s1.418-2.358,2.573-2.391S152.513,623.708,151.243,622.29Z" transform="translate(-146.081 -581.163)" opacity="0.1"/>
      <path id="Trazado_772" data-name="Trazado 772" d="M185.823,634c0,.3-.033.537-.077.537s-.077-.24-.077-.537.041-.154.082-.154S185.823,633.7,185.823,634Z" transform="translate(-179.466 -591.797)" fill="#ffd037"/>
      <path id="Trazado_773" data-name="Trazado 773" d="M186.9,638.422c-.26.142-.487.23-.506.191s.175-.18.435-.322.157-.038.177,0S187.161,638.279,186.9,638.422Z" transform="translate(-180.133 -595.87)" fill="#ffd037"/>
      <path id="Trazado_774" data-name="Trazado 774" d="M110.492,622.29s-.643.844.3,2.111,1.712,2.342,1.405,3.134c0,0-1.418-2.358-2.573-2.391S109.222,623.708,110.492,622.29Z" transform="translate(-108.727 -581.163)" fill="#638dff"/>
      <path id="Trazado_775" data-name="Trazado 775" d="M110.458,622.29a1.042,1.042,0,0,0-.131.264c-1.127,1.323-1.726,2.558-.644,2.59,1.008.029,2.218,1.832,2.508,2.288a.986.986,0,0,1-.035.1s-1.418-2.358-2.573-2.391S109.189,623.708,110.458,622.29Z" transform="translate(-108.694 -581.163)" opacity="0.1"/>
      <path id="Trazado_776" data-name="Trazado 776" d="M112.25,634c0,.3.033.537.077.537s.077-.24.077-.537-.041-.154-.082-.154S112.25,633.7,112.25,634Z" transform="translate(-111.681 -591.797)" fill="#ffd037"/>
      <path id="Trazado_777" data-name="Trazado 777" d="M104.992,638.422c.26.142.487.23.506.191s-.175-.18-.435-.322-.157-.038-.177,0S104.732,638.279,104.992,638.422Z" transform="translate(-104.833 -595.87)" fill="#ffd037"/>
      <path id="Trazado_778" data-name="Trazado 778" d="M114.91,677.506a6.587,6.587,0,0,0,2.34-.441c.542-.386,2.763-.844,2.9-.23s2.7,3.078.672,3.095a17.215,17.215,0,0,1-5.258-.646C115.024,678.954,114.91,677.506,114.91,677.506Z" transform="translate(-114.137 -631.244)" fill="#a8a8a8"/>
      <path id="Trazado_779" data-name="Trazado 779" d="M120.869,691.392a17.214,17.214,0,0,1-5.258-.645c-.412-.251-.576-1.151-.631-1.566h-.06s.114,1.451.655,1.78a17.218,17.218,0,0,0,5.261.646c.586,0,.788-.213.777-.522C121.527,691.271,121.3,691.387,120.869,691.392Z" transform="translate(-114.146 -642.919)" opacity="0.2"/>
      <path id="Trazado_780" data-name="Trazado 780" d="M419.87,464.147s9-5.749,15.22-5.749a44.908,44.908,0,0,1,15.637.805c8.147,1.972,11.156,4.528,13.415,3.778l-9.489.278Z" transform="translate(-395.691 -429.533)" fill="#8cd0f3"/>
      <path id="Trazado_781" data-name="Trazado 781" d="M419.87,464.147s9-5.749,15.22-5.749a44.908,44.908,0,0,1,15.637.805c8.147,1.972,11.156,4.528,13.415,3.778l-9.489.278Z" transform="translate(-395.691 -429.533)" fill="#8cd0f3" opacity="0.1"/>
      <path id="Trazado_782" data-name="Trazado 782" d="M207.482,463.027H152.6l1.509-6.046,9.333-2.481,44.04,1.157Z" transform="translate(-140.888 -419.613)" fill="#121c3f"/>
      <path id="Trazado_783" data-name="Trazado 783" d="M271.559,473.225v1.929s-1.629,1.182-1.777,2.108a23.539,23.539,0,0,1-3,.592,1.921,1.921,0,0,0-.2.007,5.535,5.535,0,0,0,.243-.859,5.656,5.656,0,1,0-10.735,1.151h-3.164s-.029.01-.077.031c-.17.077-.57.279-.627.6H226.009l-.537,0a5.552,5.552,0,0,0,.307-.594,5.482,5.482,0,0,0,.373-1.18,5.661,5.661,0,1,0-10.431,1.755c-.375-.091-1.192-.351-1.192-.351s-3.481-.37-4.369-1.151l.134-.093.569-.389-.259-1a.613.613,0,0,1-.077-.137.913.913,0,0,1,.114-.864,7.3,7.3,0,0,0,.185-2.7s5.036-3.481,14.961-4.259a1.433,1.433,0,0,0,.727.223,3.176,3.176,0,0,0,1.348-.223s.814.37,4.3-1.629a24.426,24.426,0,0,1,13.7-3.7s8-.482,14.813,2.149a41.939,41.939,0,0,0,6.763,2.056,15.689,15.689,0,0,0,2.817.355h.271s0,.882.047,1.923v.005c.017.362.04.744.072,1.114v.023a4.222,4.222,0,0,0,.509,2.156Z" transform="translate(-202.076 -433.589)" fill="#2856b8"/>
      <path id="Trazado_784" data-name="Trazado 784" d="M228.335,569.657a7.365,7.365,0,0,1,5.009-1.37s-2.527,2-3.666,1.87l-.194-.167-1.151.064S228.16,569.787,228.335,569.657Z" transform="translate(-218.784 -531.257)" fill="#8cd0f3"/>
      <path id="Trazado_785" data-name="Trazado 785" d="M215.446,626v1.028s-.077.982-.963,1.018l-2.533.125.569-.389-.259-1a.594.594,0,0,1-.077-.136,3,3,0,0,1,1.877-.646Z" transform="translate(-203.729 -584.588)" fill="#fff" opacity="0.2"/>
      <path id="Trazado_786" data-name="Trazado 786" d="M411.06,568.957,413,568.88a3.554,3.554,0,0,1-1.342.676C411.106,569.612,411.06,568.957,411.06,568.957Z" transform="translate(-387.557 -531.852)" fill="#fff" opacity="0.2"/>
      <path id="Trazado_787" data-name="Trazado 787" d="M464.38,624.83s17.581-2.444,21.831-1.667a3.279,3.279,0,0,1,1.722.583c.473.5,0,.176,0,.176Z" transform="translate(-436.785 -581.828)" fill="#fff" opacity="0.2"/>
      <path id="Trazado_788" data-name="Trazado 788" d="M592.61,550.756s.223-.417.583-.426l2.342-.12a.577.577,0,0,1-.454.444Z" transform="translate(-555.174 -514.615)" fill="#18218a" opacity="0.5"/>
      <path id="Trazado_789" data-name="Trazado 789" d="M769.21,541.549s.223-.417.583-.426l2.342-.123a.577.577,0,0,1-.454.444Z" transform="translate(-718.22 -506.112)" fill="#18218a" opacity="0.5"/>
      <path id="Trazado_790" data-name="Trazado 790" d="M495.694,472.677l-1.8,4.714-6.481.007h-5.8s.866-.635,2.26-1.445c.46-.269.983-.556,1.55-.844.522-.267,1.084-.537,1.674-.794.461-.2.946-.4,1.441-.579A15.436,15.436,0,0,1,495.694,472.677Z" transform="translate(-452.702 -442.95)" fill="#8cd0f3"/>
      <path id="Trazado_791" data-name="Trazado 791" d="M679.781,475.845s-2.708.4-5.292.7c-.988.114-1.957.212-2.751.266l-.11.008c-.307.02-.592.033-.834.038a3.066,3.066,0,0,1-.814-.056l.747-4.509s.921.01,2.283.077l.3.016c.283.016.582.035.893.056.445.031.914.068,1.4.112a25.747,25.747,0,0,1,6.654,1.291C685.816,475.317,679.781,475.845,679.781,475.845Z" transform="translate(-626.605 -442.675)" fill="#8cd0f3"/>
      <path id="Trazado_792" data-name="Trazado 792" d="M941.2,548.141v1.2s-1.944.028-1.527-.361a5.946,5.946,0,0,0,.731-.844Z" transform="translate(-875.548 -512.704)" fill="#8cd0f3"/>
      <path id="Trazado_793" data-name="Trazado 793" d="M979.239,541.2l-1.579.124v-1.447a.811.811,0,0,1,1.463.111l.042.067Z" transform="translate(-910.671 -504.687)" fill="#8cd0f3"/>
      <circle id="Elipse_91" data-name="Elipse 91" cx="4.518" cy="4.518" r="4.518" transform="translate(14.009 37.784)" fill="#182a7c"/>
      <path id="Trazado_794" data-name="Trazado 794" d="M305.96,593.878a3.636,3.636,0,1,1-.077-.737A3.636,3.636,0,0,1,305.96,593.878Z" transform="translate(-283.809 -551.58)" fill="#3f8ffe"/>
      <ellipse id="Elipse_92" data-name="Elipse 92" cx="3.115" cy="3.123" rx="3.115" ry="3.123" transform="translate(15.406 39.175)" fill="#18218a" opacity="0.5"/>
      <path id="Trazado_795" data-name="Trazado 795" d="M337.259,590.292v.132l-1.037,3.433-.832-3.622A3.645,3.645,0,0,1,337.259,590.292Z" transform="translate(-317.695 -551.48)" fill="#3f8ffe"/>
      <path id="Trazado_796" data-name="Trazado 796" d="M337.657,641.98a3.647,3.647,0,0,1-1.827.063l.8-3.473Z" transform="translate(-318.101 -596.193)" fill="#3f8ffe"/>
      <path id="Trazado_797" data-name="Trazado 797" d="M349.891,628.7a3.645,3.645,0,0,1-.173,1.116H349.7l-3.433-1.037,3.55-.815A3.662,3.662,0,0,1,349.891,628.7Z" transform="translate(-327.74 -586.398)" fill="#3f8ffe"/>
      <path id="Trazado_798" data-name="Trazado 798" d="M302.519,628.737l-3.433,1.037h-.027a3.674,3.674,0,0,1-.1-1.854Z" transform="translate(-283.992 -586.361)" fill="#3f8ffe"/>
      <circle id="Elipse_93" data-name="Elipse 93" cx="0.398" cy="0.398" r="0.398" transform="translate(18.123 41.899)" fill="#182a7c"/>
      <circle id="Elipse_94" data-name="Elipse 94" cx="4.518" cy="4.518" r="4.518" transform="translate(54.66 37.784)" fill="#182a7c"/>
      <path id="Trazado_799" data-name="Trazado 799" d="M835.64,593.878a3.637,3.637,0,1,1-.077-.737A3.637,3.637,0,0,1,835.64,593.878Z" transform="translate(-772.836 -551.579)" fill="#3f8ffe"/>
      <ellipse id="Elipse_95" data-name="Elipse 95" cx="3.115" cy="3.123" rx="3.115" ry="3.123" transform="translate(56.059 39.175)" fill="#18218a" opacity="0.5"/>
      <path id="Trazado_800" data-name="Trazado 800" d="M866.929,590.292v.132l-1.037,3.433-.832-3.622A3.645,3.645,0,0,1,866.929,590.292Z" transform="translate(-806.713 -551.481)" fill="#3f8ffe"/>
      <path id="Trazado_801" data-name="Trazado 801" d="M867.337,641.98a3.647,3.647,0,0,1-1.827.063l.8-3.473Z" transform="translate(-807.129 -596.193)" fill="#3f8ffe"/>
      <path id="Trazado_802" data-name="Trazado 802" d="M879.525,628.687a3.641,3.641,0,0,1-.173,1.116h-.018l-3.434-1.038,3.55-.815A3.671,3.671,0,0,1,879.525,628.687Z" transform="translate(-816.721 -586.388)" fill="#3f8ffe"/>
      <path id="Trazado_803" data-name="Trazado 803" d="M832.189,628.737l-3.433,1.037h-.027a3.675,3.675,0,0,1-.1-1.854Z" transform="translate(-773.011 -586.361)" fill="#3f8ffe"/>
      <circle id="Elipse_96" data-name="Elipse 96" cx="0.398" cy="0.398" r="0.398" transform="translate(58.776 41.899)" fill="#182a7c"/>
      <path id="Trazado_804" data-name="Trazado 804" d="M502.53,505.5l-1.135,2.288H500.14l.839-1.444C501.442,506.076,501.963,505.789,502.53,505.5Z" transform="translate(-469.801 -473.336)" fill="#fff" opacity="0.2"/>
      <path id="Trazado_805" data-name="Trazado 805" d="M538.189,487.61l-1.131,3.659H535.39l1.358-3.081C537.212,487.987,537.694,487.793,538.189,487.61Z" transform="translate(-502.345 -456.82)" fill="#fff" opacity="0.2"/>
      <path id="Trazado_806" data-name="Trazado 806" d="M684.017,473.421l-2.463,4.368-.111.008c-.307.02-.592.033-.833.038l2.216-4.484.3.016C683.4,473.381,683.7,473.4,684.017,473.421Z" transform="translate(-636.42 -443.654)" fill="#fff" opacity="0.2"/>
      <path id="Trazado_807" data-name="Trazado 807" d="M360.426,448.63l-1.406,9.685,11.743-.257,1.928-9.386Z" transform="translate(-331.465 -414.194)" fill="none" stroke="#fff" stroke-miterlimit="10" stroke-width="1" opacity="0.2"/>
      <path id="Trazado_808" data-name="Trazado 808" d="M437.053,667.431c-.17.077-.569.279-.627.6H410.207l-.537,0a5.542,5.542,0,0,0,.307-.594Z" transform="translate(-386.274 -622.839)" fill="#18218a" opacity="0.5"/>
      <path id="Trazado_809" data-name="Trazado 809" d="M424.555,735.426a1.222,1.222,0,0,0,.4-.6.536.536,0,0,0-.279-.614.776.776,0,0,0-.737.258.973.973,0,0,1-.716.345,1.09,1.09,0,0,0,.337-1.021.426.426,0,0,0-.094-.207c-.142-.153-.4-.087-.569.033a2.14,2.14,0,0,0-.695,1.777,3.38,3.38,0,0,1-.01-.732.752.752,0,0,0-.275-.648.828.828,0,0,0-.419-.1.865.865,0,0,0-.68.193.675.675,0,0,0,.027.835,2.657,2.657,0,0,0,.7.564,1.562,1.562,0,0,1,.5.48.471.471,0,0,1,.038.086h1.524A4.253,4.253,0,0,0,424.555,735.426Z" transform="translate(-396.444 -683.835)" fill="#638dff"/>
      <path id="Trazado_810" data-name="Trazado 810" d="M851.851,758.351a.9.9,0,0,0,.294-.444.394.394,0,0,0-.206-.452.577.577,0,0,0-.543.191.723.723,0,0,1-.529.255.8.8,0,0,0,.249-.753.315.315,0,0,0-.069-.154c-.105-.112-.295-.064-.421.025a1.566,1.566,0,0,0-.513,1.311,2.515,2.515,0,0,1-.008-.537.555.555,0,0,0-.2-.477.612.612,0,0,0-.307-.073.639.639,0,0,0-.5.143.494.494,0,0,0,.02.614,2,2,0,0,0,.52.416,1.151,1.151,0,0,1,.372.354.359.359,0,0,1,.028.063h1.124A3.133,3.133,0,0,0,851.851,758.351Z" transform="translate(-791.882 -705.469)" fill="#638dff"/>
      <path id="Trazado_811" data-name="Trazado 811" d="M916.851,790.161a.9.9,0,0,0,.294-.444.394.394,0,0,0-.206-.452.576.576,0,0,0-.543.191.723.723,0,0,1-.529.255.8.8,0,0,0,.249-.753.315.315,0,0,0-.069-.154c-.105-.112-.295-.064-.42.025a1.566,1.566,0,0,0-.513,1.311,2.516,2.516,0,0,1-.008-.537.555.555,0,0,0-.2-.477.614.614,0,0,0-.307-.073.639.639,0,0,0-.5.143.494.494,0,0,0,.02.614,2,2,0,0,0,.52.416,1.151,1.151,0,0,1,.372.354.344.344,0,0,1,.028.063h1.124A3.13,3.13,0,0,0,916.851,790.161Z" transform="translate(-851.893 -734.838)" fill="#638dff"/>
      <path id="Trazado_812" data-name="Trazado 812" d="M529.683,531.067s-.268.146-.39-.68c-.077-.537-.3-1.645-.447-2.364l-.018-.091a1.235,1.235,0,0,0,.124-.046s-.853-3.3-.658-4.031a6.647,6.647,0,0,0,0-2.04l-.512-1.724s-1.268-.437-1.755-.559a11.92,11.92,0,0,1-1.853-.972,1.044,1.044,0,0,1,.066.085l-.055-.033a2.041,2.041,0,0,1-.269-.307,1.932,1.932,0,0,0,.505-1.05,2.179,2.179,0,0,0-.109-2.217,1.089,1.089,0,0,0,.187-.348.571.571,0,0,0,.021-.178.473.473,0,0,0-.267-.47.466.466,0,0,0-.367,0,1.583,1.583,0,0,1-.312.166c-.2.041-.366-.117-.521-.235a1.568,1.568,0,0,0-.828-.307.8.8,0,0,0-.384.051,1.538,1.538,0,0,0-.318.239,4.207,4.207,0,0,1-1.286.516c-.084.029-.178.077-.193.153a.115.115,0,0,0,0,.046h0a.114.114,0,0,0,0,.058,4.321,4.321,0,0,0-1.628.763l-.135.125a.258.258,0,0,0-.282.024l-.272.213a.256.256,0,0,0-.061.333l-1.987,1.842-.043.04v-.007s-1.535,1.166-1.535,1.991a1.383,1.383,0,0,0,.711,1.123,1.9,1.9,0,0,0-.5.767h0v.187h0v.026l-.006.034v.014l0,.023v.048l-.005.031h0l-.007.038v.008l-.005.032v.015l-.006.035v.009l-.007.04v.018l-.018.1h0l-.009.055v.009l-.01.056v.008l-.01.057v0l-.011.06v.013l-.011.059v.013l-.01.058V523l-.012.066v.012l-.026.147h0l-.013.077v.011l-.013.077v.005l-.028.154v.013l-.014.077v.011l-.03.162v.007l-.015.082v.007l-.031.167v.011l-.015.083v.006l-.032.171v.009l-.016.084v.006l-.033.173v.007l-.016.085v.007l-.14.173v.008l-.017.084v0l-.035.17v0l-.017.083v0l-.034.163v.007l-.016.077v.007l-.033.154v.005l-.016.077v.008l-.032.145v0l-.015.068v.007l-.031.134h0l-.015.063v.005l-.03.12h0l-.015.055v.006l-.014.053a1.336,1.336,0,0,1-.154.42.432.432,0,0,0-.09.141h0l-.006.015-.006.017-.005.017-.025.023-.005.018,0,.016,0,.018v.017l0,.018v.017a.115.115,0,0,1-.006.037v.6l.23.07s.116.064.295.147a11.222,11.222,0,0,1-.291,2.464,9.381,9.381,0,0,1-1.7-.01c-.244-.1-1.8-.34-1.316.777a2.488,2.488,0,0,0,1.1,1.075,1.351,1.351,0,0,1-.169.044c-.4.077-.508.21-.493.346-.028.23.363.487.4.5a8.406,8.406,0,0,0,2.1.17c.391-.122,1.975-.413,1.975-.413v-.048h0s-.022-.477-.081-.93c.18-.026.375-.05.566-.065a.772.772,0,0,0,.417.533c1.048.537,1.39-.194,1.39-.194a6.835,6.835,0,0,0,2.21.077,2.336,2.336,0,0,0,.2.168,3.726,3.726,0,0,0,1.724.321,2.443,2.443,0,0,0,.619-.018,5.73,5.73,0,0,0,1.013-.159,1.651,1.651,0,0,0,1.182-1.5c.037-.011.063-.049.077-.121a.35.35,0,0,0,.032-.125,3.7,3.7,0,0,1,.1-.528l1.151.064c.514.933.969,1.675.969,1.675l.78-.1a4.5,4.5,0,0,1-.9-.972c-.39-.583-.39-3.377-.39-3.377l.044-1.7V525.9a9.38,9.38,0,0,0,.708,1.989c.047.015.093.029.138.042l.042.109c.325.863,1.151,3.07,1.209,3.418.077.438,3.121.607,3.8.388S529.683,531.067,529.683,531.067ZM518.81,521.4l-1.116,1.676a11.125,11.125,0,0,0-1.2-1.747C517.489,521.365,518.63,521.4,518.81,521.4Zm-.17-4.3a.259.259,0,0,0,.269-.03l.1-.077a.256.256,0,0,0,.065-.328l.057-.056a8.49,8.49,0,0,0,1.16-.282,2.165,2.165,0,0,0,.284.985,1.926,1.926,0,0,0,.187.553c-.175-.015-.365-.025-.547-.023a2.864,2.864,0,0,0-.475.03c-.585.1-.659,1.166-.659,1.166a8.123,8.123,0,0,1-1.881.427.881.881,0,0,1-.264-.039l-.071,0,.1-.263s-.041.013-.11.027q.033-.05.069-.1a18.513,18.513,0,0,1,1.724-1.983Zm-2.414,12.967a4.511,4.511,0,0,0-.242.476,1.1,1.1,0,0,1-.855-.088.5.5,0,0,0-.321-.113l0-.009a5.965,5.965,0,0,0,.348-1.472,1.562,1.562,0,0,0,.871-.374l.563.193.021.039.014.025.022.042.014.026.022.041.015.026.022.04.015.026.022.039.015.026.022.039.015.025.022.038.014.025.022.038.014.024.022.038.014.024.022.037.013.022.022.037.013.021.022.037.011.019.023.038.008.014c.04.065.077.127.114.186l.005.008.021.034.009.015.019.031.011.016.018.028.011.018.016.025.012.018.015.024.011.017.014.021.011.017.013.02.011.017.012.018.011.016h0A4.944,4.944,0,0,1,516.226,530.072Z" transform="translate(-479.149 -480.874)" fill="url(#linear-gradient)"/>
      <path id="Trazado_813" data-name="Trazado 813" d="M733.035,695.8c-.665.214-3.636.048-3.708-.384-.057-.343-.862-2.5-1.18-3.346l-.127-.338,1.545-.333s.057.271.135.657c.143.7.358,1.792.435,2.314.119.808.384.665.384.665S733.7,695.587,733.035,695.8Z" transform="translate(-680.191 -644.969)" fill="#ffbdc6"/>
      <path id="Trazado_814" data-name="Trazado 814" d="M659.691,566s-.119.713.9,1.381.143,3.066.143,3.066l-.756.042a1.858,1.858,0,0,1-1.954-1.682h0s.427-.691-.357-2.472Z" transform="translate(-615.24 -529.193)" fill="#ffbdc6"/>
      <path id="Trazado_815" data-name="Trazado 815" d="M581.718,532.118a22.2,22.2,0,0,0-2.155,2.423,3.487,3.487,0,0,0-.222.358c-.5.951-1.659-.595-1.258-1.129l.277-.259,2.668-2.487s1.831-1.426,2.757-.4S581.718,532.118,581.718,532.118Z" transform="translate(-541.685 -496.188)" fill="#ffbdc6"/>
      <circle id="Elipse_97" data-name="Elipse 97" cx="2.139" cy="2.139" r="2.139" transform="translate(41.162 33.422)" fill="#a66477"/>
      <path id="Trazado_816" data-name="Trazado 816" d="M517,730.005a11.644,11.644,0,0,1-1.83,0c-.238-.1-1.758-.332-1.28.761s2.282,1.545,2.282,1.545l1.3-.333Z" transform="translate(-482.408 -680.529)" fill="#7679b4"/>
      <path id="Trazado_817" data-name="Trazado 817" d="M517,730.005a11.644,11.644,0,0,1-1.83,0c-.238-.1-1.758-.332-1.28.761s2.282,1.545,2.282,1.545l1.3-.333Z" transform="translate(-482.408 -680.529)" opacity="0.05"/>
      <path id="Trazado_818" data-name="Trazado 818" d="M610.1,670.08l3.2,1.3,1.818,3.862a1.707,1.707,0,0,1-1.164,1.664,5.493,5.493,0,0,1-3.28-.143c-.428-.309-2.187-2.139-2.187-2.139Z" transform="translate(-569.826 -625.285)" fill="#7679b4"/>
      <path id="Trazado_819" data-name="Trazado 819" d="M609.879,670.08l2.767,1.037,1.574,3.091a1.36,1.36,0,0,1-1.008,1.332,5.131,5.131,0,0,1-2.84-.114c-.371-.247-1.893-1.712-1.893-1.712Z" transform="translate(-569.826 -625.285)" opacity="0.05"/>
      <path id="Trazado_820" data-name="Trazado 820" d="M565.671,729.748s-.832.285-1.164,0-.927.071-.927.071l.263,1.545a7.7,7.7,0,0,1,1.83-.19Z" transform="translate(-528.372 -680.272)" fill="#ffbdc6"/>
      <path id="Trazado_821" data-name="Trazado 821" d="M565.671,729.748s-.832.285-1.164,0-.927.071-.927.071l.263,1.545a7.7,7.7,0,0,1,1.83-.19Z" transform="translate(-528.372 -680.272)" opacity="0.05"/>
      <path id="Trazado_822" data-name="Trazado 822" d="M569.334,647.644l-.759-.262s-.832.737-1.381.119.5-3.185.5-3.185l1.117-1.807.808,2.543.737,1.236Z" transform="translate(-531.56 -599.831)" fill="#565388"/>
      <path id="Trazado_823" data-name="Trazado 823" d="M569.334,647.644l-.759-.262s-.832.737-1.381.119.5-3.185.5-3.185l1.117-1.807.808,2.543.737,1.236Z" transform="translate(-531.56 -599.831)" opacity="0.05"/>
      <path id="Trazado_824" data-name="Trazado 824" d="M585.781,621.07l1.711.237.333,1.569-2.115-.119Z" transform="translate(-540.757 -573.399)" fill="#565388"/>
      <path id="Trazado_825" data-name="Trazado 825" d="M585.781,621.07l1.711.237.333,1.569-2.115-.119Z" transform="translate(-540.757 -573.399)" opacity="0.05"/>
      <path id="Trazado_826" data-name="Trazado 826" d="M622.3,595.45s.713,2.733,2.993.761l.618,7.843a6.586,6.586,0,0,0-.88,2.3c-.119,1.091-2.187-3.377-3.422-3.4s-2.46-1.747-2.46-1.747l1.391-2.864Z" transform="translate(-579.677 -556.383)" opacity="0.1"/>
      <path id="Trazado_827" data-name="Trazado 827" d="M622.61,594.52s.713,2.733,2.993.761l.618,7.843a6.587,6.587,0,0,0-.88,2.3c-.119,1.091-2.187-3.377-3.422-3.4s-2.46-1.747-2.46-1.747l1.391-2.864Z" transform="translate(-579.963 -555.524)" fill="#f2f1f2"/>
      <path id="Trazado_828" data-name="Trazado 828" d="M570.629,570.388a6.324,6.324,0,0,0-1.569-.071c-.571.1-.642,1.14-.642,1.14a5.646,5.646,0,0,1-2.163.384s-2.686-.19-2.686.618a1.442,1.442,0,0,0,.857,1.183s3.729.126,3.755.119c.856-.238-.024,0-.024,0l-1.545,2.329,1.426,1.973,1.521-1.117a3.664,3.664,0,0,1,.691-1.569,11.133,11.133,0,0,0,1.059-2.987,1.528,1.528,0,0,0-.173-1.166Z" transform="translate(-528.362 -533.151)" opacity="0.1"/>
      <path id="Trazado_829" data-name="Trazado 829" d="M579.563,573.75a3.505,3.505,0,0,0-.222.358c-.5.951-1.659-.595-1.258-1.129l.277-.259C578.259,573.946,579.257,573.816,579.563,573.75Z" transform="translate(-541.685 -535.397)" opacity="0.1"/>
      <path id="Trazado_830" data-name="Trazado 830" d="M623.027,613.068H623S623.883,612.83,623.027,613.068Z" transform="translate(-583.231 -572.551)" opacity="0.1"/>
      <path id="Trazado_831" data-name="Trazado 831" d="M569.709,570.388a6.323,6.323,0,0,0-1.569-.071c-.571.1-.642,1.14-.642,1.14a5.646,5.646,0,0,1-2.163.384l.1-.262s-1.449.451-1.283-1.072c0,0-1.5,1.14-1.5,1.949a1.448,1.448,0,0,0,.856,1.186s3.729.126,3.755.119c.856-.238-.024,0-.024,0l-1.545,2.329,1.426,1.973,1.521-1.117a3.664,3.664,0,0,1,.691-1.569,11.138,11.138,0,0,0,1.059-2.987,1.527,1.527,0,0,0-.173-1.166Z" transform="translate(-527.513 -533.151)" fill="#565388"/>
      <path id="Trazado_832" data-name="Trazado 832" d="M718.328,672.25v.13A.283.283,0,0,1,718.328,672.25Z" transform="translate(-671.236 -627.288)" opacity="0.1"/>
      <path id="Trazado_833" data-name="Trazado 833" d="M729.7,692.1a2.715,2.715,0,0,1-1.553.014l-.127-.338,1.545-.333Z" transform="translate(-680.191 -645.006)" opacity="0.1"/>
      <path id="Trazado_834" data-name="Trazado 834" d="M689.62,579.34a11.592,11.592,0,0,0,1.807.951c.476.119,1.711.547,1.711.547l.5,1.688a6.514,6.514,0,0,1,0,2,4.859,4.859,0,0,1-1.877,1.854l-.048,1.877s0,2.733.384,3.3-.725-.559-.725-.559a10.566,10.566,0,0,1-1.509-3.244c-.166-1.26.094-6.1.094-6.1l-.238-.333S690.214,580.029,689.62,579.34Z" transform="translate(-644.738 -541.509)" opacity="0.1"/>
      <path id="Trazado_835" data-name="Trazado 835" d="M690.55,579.34a11.592,11.592,0,0,0,1.807.951c.476.119,1.711.547,1.711.547l.5,1.688a6.516,6.516,0,0,1,0,2c-.19.712.642,3.946.642,3.946a2.649,2.649,0,0,1-1.831,0,7.5,7.5,0,0,1-.691-2.091l-.048,1.877s0,2.733.384,3.3a4.4,4.4,0,0,0,.88.951l-.761.1s-2.189-3.586-2.355-4.843.1-6.109.1-6.109l-.238-.333S691.144,580.029,690.55,579.34Z" transform="translate(-645.597 -541.509)" fill="#565388"/>
      <path id="Trazado_836" data-name="Trazado 836" d="M554.312,617.313s-1.593-2.3-1.521-3.377c0,0-.19,1.474-.4,1.569a13.669,13.669,0,0,1-2.353-.571s-.1-.691.143-.927a40.565,40.565,0,0,0,.975-4.635,1.626,1.626,0,0,1,1.4-1.259c1.141-.071,3.708,5.728,3.708,5.728S556.641,617.313,554.312,617.313Z" transform="translate(-515.848 -568.073)" fill="#7679b4"/>
      <path id="Trazado_837" data-name="Trazado 837" d="M549.34,687.11s.048,3.327-.546,3.874,1.735.832,1.735.832a1.814,1.814,0,0,1-.071-1.45A16.048,16.048,0,0,0,551,687.11Z" transform="translate(-514.63 -641.008)" fill="#ffbdc6"/>
      <path id="Trazado_838" data-name="Trazado 838" d="M523.373,733.353s-.238-.594-.88-.119c0,0-.57,1.331-1.569,1.521s-.143.761-.1.784a8.2,8.2,0,0,0,2.044.167c.38-.119,1.925-.4,1.925-.4s-.071-1.569-.307-1.688S524.372,734.326,523.373,733.353Z" transform="translate(-488.546 -683.422)" opacity="0.05"/>
      <path id="Trazado_839" data-name="Trazado 839" d="M523.373,733.943s-.238-.594-.88-.119c0,0-.57,1.331-1.569,1.521s-.143.761-.1.784a8.207,8.207,0,0,0,2.044.167c.38-.119,1.926-.4,1.926-.4s-.071-1.569-.307-1.688S524.372,734.917,523.373,733.943Z" transform="translate(-488.546 -683.967)" fill="#7679b4"/>
      <path id="Trazado_840" data-name="Trazado 840" d="M608.213,541.65a11.049,11.049,0,0,0,.648.9.251.251,0,0,1-.036.361l-.093.073a.251.251,0,0,1-.358-.05,2.835,2.835,0,0,0-.768-.727.251.251,0,0,1-.023-.41l.265-.209a.251.251,0,0,1,.365.058Z" transform="translate(-568.911 -506.608)" fill="#565388"/>
      <path id="Trazado_841" data-name="Trazado 841" d="M660.271,567.684a1.124,1.124,0,0,1-.249-.774l-2.022.336a6.531,6.531,0,0,1,.345.969A1.9,1.9,0,0,0,660.271,567.684Z" transform="translate(-615.545 -530.033)" opacity="0.1"/>
      <circle id="Elipse_98" data-name="Elipse 98" cx="1.901" cy="1.901" r="1.901" transform="translate(41.412 34.385)" fill="#ffbdc6"/>
      <path id="Trazado_842" data-name="Trazado 842" d="M639.508,519.686a4.72,4.72,0,0,1,.521-.144.868.868,0,0,1,.6.288,1.436,1.436,0,0,0,.542.391,1.338,1.338,0,0,0,.434.029.4.4,0,0,0,.23-.058.29.29,0,0,0,.077-.117,1.117,1.117,0,0,0-.007-.9.153.153,0,0,1-.022-.1.148.148,0,0,1,.033-.054,1.662,1.662,0,0,0,.378-.582.487.487,0,0,0-.24-.587.452.452,0,0,0-.358,0,1.446,1.446,0,0,1-.307.162c-.193.04-.358-.115-.508-.23a1.526,1.526,0,0,0-.807-.3.781.781,0,0,0-.377.05,1.5,1.5,0,0,0-.307.23,4.108,4.108,0,0,1-1.253.506c-.082.029-.173.072-.189.154s.077.163.169.2a.617.617,0,0,1,.259.13c.077.092.052.223.066.338.028.23.23.355.454.422C639.082,519.566,639.325,519.717,639.508,519.686Z" transform="translate(-597.032 -484.391)" opacity="0.1"/>
      <path id="Trazado_843" data-name="Trazado 843" d="M639.638,519.14a4.721,4.721,0,0,1,.521-.144.868.868,0,0,1,.6.288,1.436,1.436,0,0,0,.542.391,1.339,1.339,0,0,0,.435.029.4.4,0,0,0,.23-.058.29.29,0,0,0,.077-.117,1.116,1.116,0,0,0-.007-.9.153.153,0,0,1-.021-.1.148.148,0,0,1,.033-.055,1.66,1.66,0,0,0,.378-.582.487.487,0,0,0-.24-.587.451.451,0,0,0-.358,0,1.45,1.45,0,0,1-.307.162c-.193.04-.358-.115-.508-.23a1.525,1.525,0,0,0-.8-.295.779.779,0,0,0-.377.05,1.506,1.506,0,0,0-.307.23,4.108,4.108,0,0,1-1.253.506c-.082.029-.173.072-.189.154s.077.164.169.2a.618.618,0,0,1,.259.13c.077.092.052.223.066.338.028.23.23.355.454.422C639.212,519.02,639.454,519.171,639.638,519.14Z" transform="translate(-597.161 -483.893)" fill="#a66477"/>
      <path id="Trazado_844" data-name="Trazado 844" d="M638.29,664.84s1.358.23,1.7.963a18.62,18.62,0,0,0,2.379,2.716" transform="translate(-597.348 -620.447)" opacity="0.05"/>
      <g id="Grupo_159" data-name="Grupo 159" transform="translate(34.167 41.153)" opacity="0.05">
        <path id="Trazado_845" data-name="Trazado 845" d="M552.433,687.933a13.655,13.655,0,0,1-2.353-.57,2.269,2.269,0,0,1,.007-.622,1.894,1.894,0,0,0-.054.789,13.66,13.66,0,0,0,2.353.57c.071-.031.139-.214.2-.445C552.536,687.8,552.486,687.911,552.433,687.933Z" transform="translate(-550.013 -681.819)"/>
        <path id="Trazado_846" data-name="Trazado 846" d="M554.958,622.63a1.382,1.382,0,0,0-.045.147s-.516,3.08-.823,4.221C554.375,626.072,554.912,622.9,554.958,622.63Z" transform="translate(-553.777 -622.63)"/>
        <path id="Trazado_847" data-name="Trazado 847" d="M587.758,685.2s-1.593-2.3-1.521-3.377c0,0-.017.134-.047.322a9.8,9.8,0,0,0,1.52,3.222,1.848,1.848,0,0,0,1.817-1.608A1.792,1.792,0,0,1,587.758,685.2Z" transform="translate(-583.414 -677.277)"/>
      </g>
      <path id="Trazado_848" data-name="Trazado 848" d="M552.634,683.221s1.452.8,1.975.419a.754.754,0,0,0,.19-.975l-.4-.665h-1.355l-.451.784Z" transform="translate(-518.225 -636.29)" fill="#7679b4"/>
      <path id="Trazado_849" data-name="Trazado 849" d="M590.587,715.519s.1-1.9-2.329-1.877-.1,0-.1,0a2.938,2.938,0,0,0-2.139.384,4.741,4.741,0,0,1-2.543.523s-1.094,1.807-.071,2.329,1.355-.194,1.355-.194,2.091.4,2.567-.143a2.44,2.44,0,0,0,2.638.526S591.157,716.541,590.587,715.519Z" transform="translate(-546.275 -665.448)" fill="#7679b4"/>
    </g>
    <g id="Grupo_162" data-name="Grupo 162" transform="translate(435.193 58.063) rotate(17)">
      <path id="Trazado_854" data-name="Trazado 854" d="M22,.3a11.929,11.929,0,0,0-1.66.1h0a.4.4,0,0,0-.8,0h0a11.928,11.928,0,0,0-1.66-.1c-1.228,0-2.224.132-2.224.3s1,.3,2.224.3a11.925,11.925,0,0,0,1.66-.1h0a.4.4,0,0,0,.026.14.263.263,0,0,0-.026.43.735.735,0,0,0-.437.4.68.68,0,0,0-.382-.139l-4.136-.184A1.616,1.616,0,0,0,13.3.8h-2.6a1.616,1.616,0,0,0-1.3.658L5.461,1.63a.68.68,0,0,0-.358.12.735.735,0,0,0-.383-.367A.263.263,0,0,0,4.658.91.4.4,0,0,0,4.674.8h0a11.925,11.925,0,0,0,1.66.1C7.563.9,8.559.764,8.559.6s-1-.3-2.224-.3a11.929,11.929,0,0,0-1.66.1h0a.4.4,0,0,0-.4-.4h0a.4.4,0,0,0-.4.4h0A11.928,11.928,0,0,0,2.224.3C1,.3,0,.43,0,.6S1,.9,2.224.9A11.924,11.924,0,0,0,3.884.8h0a.4.4,0,0,0,.026.14.263.263,0,0,0-.016.439.734.734,0,0,0-.475.685v.491a.734.734,0,0,0,.728.733h.292a.731.731,0,0,0,.588-.3.68.68,0,0,0,.445.182l3.852.108a1.626,1.626,0,0,0,.477.487A6.325,6.325,0,0,0,8.226,8.729s.232.431.83,0c0,0-.382-3.262,1.756-4.605a.531.531,0,0,0,.5.356h.273a1.428,1.428,0,1,0,1.048,0h.273a.531.531,0,0,0,.5-.356c2.138,1.343,1.756,4.605,1.756,4.605.6.431.83,0,.83,0a6.207,6.207,0,0,0-1.66-5.045H14.3a1.628,1.628,0,0,0,.361-.4l4.055-.113a.681.681,0,0,0,.464-.2.732.732,0,0,0,.6.315h.292a.734.734,0,0,0,.733-.734V2.064a.733.733,0,0,0-.435-.67.263.263,0,0,0-.047-.481A.4.4,0,0,0,20.341.8h0A11.924,11.924,0,0,0,22,.9c1.228,0,2.224-.132,2.224-.3S23.231.3,22,.3Z" transform="translate(0)" fill="url(#linear-gradient-2)"/>
      <circle id="Elipse_99" data-name="Elipse 99" cx="1.346" cy="1.346" r="1.346" transform="translate(10.765 4.386)" fill="#638dff"/>
      <circle id="Elipse_100" data-name="Elipse 100" cx="0.908" cy="0.908" r="0.908" transform="translate(11.203 4.824)" fill="#638dff"/>
      <circle id="Elipse_101" data-name="Elipse 101" cx="0.908" cy="0.908" r="0.908" transform="translate(11.203 4.824)" fill="#f5f5f5" opacity="0.2"/>
      <circle id="Elipse_102" data-name="Elipse 102" cx="0.595" cy="0.595" r="0.595" transform="translate(11.516 5.137)" fill="#638dff"/>
      <circle id="Elipse_103" data-name="Elipse 103" cx="0.595" cy="0.595" r="0.595" transform="translate(11.516 5.137)" opacity="0.25"/>
      <path id="Trazado_855" data-name="Trazado 855" d="M1.589,0A5.85,5.85,0,0,0,.024,4.759s.219.407.783,0c0,0-.47-4.007,2.661-4.759Z" transform="translate(8.424 3.728)" fill="#638dff"/>
      <path id="Trazado_856" data-name="Trazado 856" d="M1.876,0A5.854,5.854,0,0,1,3.444,4.759s-.219.407-.783,0C2.661,4.759,3.13.751,0,0Z" transform="translate(12.332 3.728)" fill="#638dff"/>
      <rect id="Rectángulo_240" data-name="Rectángulo 240" width="5.51" height="3.053" rx="1.526" transform="translate(9.246 1.004)" fill="#638dff"/>
      <path id="Trazado_857" data-name="Trazado 857" d="M4.926,1.767l-4.3-.12A.645.645,0,0,1,0,1V.838A.645.645,0,0,1,.616.194L4.915,0a.645.645,0,0,1,.674.644v.479a.645.645,0,0,1-.662.644Z" transform="translate(5.222 1.597)" fill="#638dff"/>
      <path id="Trazado_858" data-name="Trazado 858" d="M.662,1.767l4.3-.12A.645.645,0,0,0,5.589,1V.838A.645.645,0,0,0,4.973.194L.674,0A.645.645,0,0,0,0,.645v.479a.645.645,0,0,0,.662.644Z" transform="translate(13.379 1.597)" fill="#638dff"/>
      <path id="Trazado_859" data-name="Trazado 859" d="M4.926,1.767l-4.3-.12A.645.645,0,0,1,0,1V.838A.645.645,0,0,1,.616.194L4.915,0a.645.645,0,0,1,.674.644v.479a.645.645,0,0,1-.662.644Z" transform="translate(5.222 1.597)" fill="#f5f5f5" opacity="0.2"/>
      <path id="Trazado_860" data-name="Trazado 860" d="M.662,1.767l4.3-.12A.645.645,0,0,0,5.589,1V.838A.645.645,0,0,0,4.973.194L.674,0A.645.645,0,0,0,0,.645v.479a.645.645,0,0,0,.662.644Z" transform="translate(13.379 1.597)" fill="#f5f5f5" opacity="0.2"/>
      <rect id="Rectángulo_241" data-name="Rectángulo 241" width="1.659" height="1.847" rx="0.83" transform="translate(3.908 1.505)" fill="#638dff"/>
      <rect id="Rectángulo_242" data-name="Rectángulo 242" width="1.659" height="1.847" rx="0.83" transform="translate(18.654 1.505)" fill="#638dff"/>
      <rect id="Rectángulo_243" data-name="Rectángulo 243" width="1.002" height="0.501" rx="0.251" transform="translate(4.252 1.098)" fill="#638dff"/>
      <rect id="Rectángulo_244" data-name="Rectángulo 244" width="0.751" height="1.127" rx="0.376" transform="translate(4.347 0.253)" fill="#638dff"/>
      <ellipse id="Elipse_104" data-name="Elipse 104" cx="2.098" cy="0.282" rx="2.098" ry="0.282" transform="translate(0.683 0.535)" fill="#638dff"/>
      <ellipse id="Elipse_105" data-name="Elipse 105" cx="2.098" cy="0.282" rx="2.098" ry="0.282" transform="translate(4.565 0.535)" fill="#638dff"/>
      <rect id="Rectángulo_245" data-name="Rectángulo 245" width="1.002" height="0.501" rx="0.251" transform="translate(19.029 1.098)" fill="#638dff"/>
      <rect id="Rectángulo_246" data-name="Rectángulo 246" width="0.751" height="1.127" rx="0.376" transform="translate(19.123 0.253)" fill="#638dff"/>
      <ellipse id="Elipse_106" data-name="Elipse 106" cx="2.098" cy="0.282" rx="2.098" ry="0.282" transform="translate(15.46 0.535)" fill="#638dff"/>
      <ellipse id="Elipse_107" data-name="Elipse 107" cx="2.098" cy="0.282" rx="2.098" ry="0.282" transform="translate(19.342 0.535)" fill="#638dff"/>
      <ellipse id="Elipse_108" data-name="Elipse 108" cx="2.098" cy="0.282" rx="2.098" ry="0.282" transform="translate(0.683 0.535)" fill="#f5f5f5" opacity="0.2"/>
      <ellipse id="Elipse_109" data-name="Elipse 109" cx="2.098" cy="0.282" rx="2.098" ry="0.282" transform="translate(4.565 0.535)" fill="#f5f5f5" opacity="0.2"/>
      <ellipse id="Elipse_110" data-name="Elipse 110" cx="2.098" cy="0.282" rx="2.098" ry="0.282" transform="translate(15.46 0.535)" fill="#f5f5f5" opacity="0.2"/>
      <ellipse id="Elipse_111" data-name="Elipse 111" cx="2.098" cy="0.282" rx="2.098" ry="0.282" transform="translate(19.342 0.535)" fill="#f5f5f5" opacity="0.2"/>
      <rect id="Rectángulo_247" data-name="Rectángulo 247" width="2.505" height="1.002" rx="0.501" transform="translate(10.858 3.477)" fill="#638dff"/>
      <rect id="Rectángulo_248" data-name="Rectángulo 248" width="2.505" height="1.002" rx="0.501" transform="translate(10.858 3.477)" fill="#f5f5f5" opacity="0.2"/>
      <path id="Trazado_861" data-name="Trazado 861" d="M5.578,0H0V5.578H7V0Z" transform="translate(8.806 8.681)" fill="#67647e"/>
      <rect id="Rectángulo_249" data-name="Rectángulo 249" width="1.426" height="5.578" transform="translate(14.384 8.681)" opacity="0.25"/>
      <rect id="Rectángulo_250" data-name="Rectángulo 250" width="1.054" height="0.558" transform="translate(9.488 9.611)" opacity="0.25"/>
      <path id="Trazado_862" data-name="Trazado 862" d="M.719.468a1.283,1.283,0,0,1,.2.768A1.308,1.308,0,0,1,.258.79C.02.454-.071.11.061.021S.482.132.719.468Z" transform="translate(11.136 7.557)" fill="#67647e"/>
      <path id="Trazado_863" data-name="Trazado 863" d="M.2.468a1.284,1.284,0,0,0-.2.768A1.308,1.308,0,0,0,.661.79C.9.454.99.11.859.021S.437.132.2.468Z" transform="translate(12.056 7.557)" fill="#67647e"/>
    </g>
    <g id="Grupo_163" data-name="Grupo 163" transform="matrix(0.875, -0.485, 0.485, 0.875, 137.983, 55.236)">
      <path id="Trazado_854-2" data-name="Trazado 854" d="M22.583.306a12.24,12.24,0,0,0-1.7.1h0a.409.409,0,0,0-.818,0h0a12.242,12.242,0,0,0-1.7-.1c-1.26,0-2.283.135-2.283.307S17.1.92,18.357.92a12.241,12.241,0,0,0,1.7-.1h0a.4.4,0,0,0,.026.144.27.27,0,0,0-.027.441.755.755,0,0,0-.448.412.7.7,0,0,0-.392-.143l-4.245-.189A1.659,1.659,0,0,0,13.646.817H10.974a1.659,1.659,0,0,0-1.337.676L5.6,1.673a.7.7,0,0,0-.367.124.755.755,0,0,0-.393-.377A.27.27,0,0,0,4.781.934.4.4,0,0,0,4.8.817h0a12.24,12.24,0,0,0,1.7.1C7.762.92,8.785.785,8.785.613S7.763.306,6.5.306a12.241,12.241,0,0,0-1.7.1h0A.405.405,0,0,0,4.392,0h0a.405.405,0,0,0-.405.406h0a12.24,12.24,0,0,0-1.7-.1C1.023.306,0,.441,0,.613S1.022.92,2.283.92a12.239,12.239,0,0,0,1.7-.1h0a.406.406,0,0,0,.026.144A.27.27,0,0,0,4,1.411a.753.753,0,0,0-.487.7v.5a.753.753,0,0,0,.747.752h.3a.751.751,0,0,0,.6-.3.7.7,0,0,0,.457.187l3.954.111a1.67,1.67,0,0,0,.49.5A6.492,6.492,0,0,0,8.443,8.959s.239.443.852,0c0,0-.392-3.348,1.8-4.727a.545.545,0,0,0,.514.366h.28a1.465,1.465,0,1,0,1.075,0h.28a.545.545,0,0,0,.514-.366c2.195,1.379,1.8,4.727,1.8,4.727.613.443.852,0,.852,0a6.37,6.37,0,0,0-1.7-5.178h-.036a1.668,1.668,0,0,0,.37-.41l4.162-.116a.7.7,0,0,0,.477-.2.752.752,0,0,0,.618.323h.3a.753.753,0,0,0,.753-.753v-.5a.753.753,0,0,0-.446-.687.27.27,0,0,0-.049-.494A.408.408,0,0,0,20.877.82h0a12.24,12.24,0,0,0,1.7.1c1.26,0,2.283-.135,2.283-.307S23.844.306,22.583.306Z" transform="translate(0 0)" fill="url(#linear-gradient-2)"/>
      <circle id="Elipse_99-2" data-name="Elipse 99" cx="1.381" cy="1.381" r="1.381" transform="translate(11.049 4.502)" fill="#638dff"/>
      <circle id="Elipse_100-2" data-name="Elipse 100" cx="0.932" cy="0.932" r="0.932" transform="translate(11.498 4.951)" fill="#638dff"/>
      <circle id="Elipse_101-2" data-name="Elipse 101" cx="0.932" cy="0.932" r="0.932" transform="translate(11.498 4.951)" fill="#f5f5f5" opacity="0.2"/>
      <circle id="Elipse_102-2" data-name="Elipse 102" cx="0.61" cy="0.61" r="0.61" transform="translate(11.82 5.273)" fill="#638dff"/>
      <circle id="Elipse_103-2" data-name="Elipse 103" cx="0.61" cy="0.61" r="0.61" transform="translate(11.82 5.273)" opacity="0.25"/>
      <path id="Trazado_855-2" data-name="Trazado 855" d="M1.631,0A6,6,0,0,0,.024,4.884s.225.418.8,0C.828,4.884.346.771,3.559,0Z" transform="translate(8.646 3.826)" fill="#638dff"/>
      <path id="Trazado_856-2" data-name="Trazado 856" d="M1.925,0A6.008,6.008,0,0,1,3.535,4.884s-.225.418-.8,0C2.731,4.884,3.213.771,0,0Z" transform="translate(12.657 3.826)" fill="#638dff"/>
      <rect id="Rectángulo_240-2" data-name="Rectángulo 240" width="5.655" height="3.133" rx="1.567" transform="translate(9.49 1.031)" fill="#638dff"/>
      <path id="Trazado_857-2" data-name="Trazado 857" d="M5.056,1.814.643,1.69A.662.662,0,0,1,0,1.029V.86A.662.662,0,0,1,.632.2L5.044,0a.662.662,0,0,1,.691.661v.491a.662.662,0,0,1-.68.661Z" transform="translate(5.36 1.64)" fill="#638dff"/>
      <path id="Trazado_858-2" data-name="Trazado 858" d="M.68,1.814,5.092,1.69a.662.662,0,0,0,.643-.662V.86A.662.662,0,0,0,5.1.2L.691,0A.662.662,0,0,0,0,.662v.491a.662.662,0,0,0,.68.661Z" transform="translate(13.732 1.64)" fill="#638dff"/>
      <path id="Trazado_859-2" data-name="Trazado 859" d="M5.056,1.814.643,1.69A.662.662,0,0,1,0,1.029V.86A.662.662,0,0,1,.632.2L5.044,0a.662.662,0,0,1,.691.661v.491a.662.662,0,0,1-.68.661Z" transform="translate(5.36 1.64)" fill="#f5f5f5" opacity="0.2"/>
      <path id="Trazado_860-2" data-name="Trazado 860" d="M.68,1.814,5.092,1.69a.662.662,0,0,0,.643-.662V.86A.662.662,0,0,0,5.1.2L.691,0A.662.662,0,0,0,0,.662v.491a.662.662,0,0,0,.68.661Z" transform="translate(13.732 1.64)" fill="#f5f5f5" opacity="0.2"/>
      <rect id="Rectángulo_241-2" data-name="Rectángulo 241" width="1.703" height="1.896" rx="0.852" transform="translate(4.011 1.545)" fill="#638dff"/>
      <rect id="Rectángulo_242-2" data-name="Rectángulo 242" width="1.703" height="1.896" rx="0.852" transform="translate(19.146 1.545)" fill="#638dff"/>
      <rect id="Rectángulo_243-2" data-name="Rectángulo 243" width="1.028" height="0.514" rx="0.257" transform="translate(4.365 1.127)" fill="#638dff"/>
      <rect id="Rectángulo_244-2" data-name="Rectángulo 244" width="0.771" height="1.157" rx="0.386" transform="translate(4.461 0.26)" fill="#638dff"/>
      <ellipse id="Elipse_104-2" data-name="Elipse 104" cx="2.153" cy="0.289" rx="2.153" ry="0.289" transform="translate(0.701 0.549)" fill="#638dff"/>
      <ellipse id="Elipse_105-2" data-name="Elipse 105" cx="2.153" cy="0.289" rx="2.153" ry="0.289" transform="translate(4.686 0.549)" fill="#638dff"/>
      <rect id="Rectángulo_245-2" data-name="Rectángulo 245" width="1.028" height="0.514" rx="0.257" transform="translate(19.531 1.127)" fill="#638dff"/>
      <rect id="Rectángulo_246-2" data-name="Rectángulo 246" width="0.771" height="1.157" rx="0.386" transform="translate(19.628 0.26)" fill="#638dff"/>
      <ellipse id="Elipse_106-2" data-name="Elipse 106" cx="2.153" cy="0.289" rx="2.153" ry="0.289" transform="translate(15.868 0.549)" fill="#638dff"/>
      <ellipse id="Elipse_107-2" data-name="Elipse 107" cx="2.153" cy="0.289" rx="2.153" ry="0.289" transform="translate(19.852 0.549)" fill="#638dff"/>
      <ellipse id="Elipse_108-2" data-name="Elipse 108" cx="2.153" cy="0.289" rx="2.153" ry="0.289" transform="translate(0.701 0.549)" fill="#f5f5f5" opacity="0.2"/>
      <ellipse id="Elipse_109-2" data-name="Elipse 109" cx="2.153" cy="0.289" rx="2.153" ry="0.289" transform="translate(4.686 0.549)" fill="#f5f5f5" opacity="0.2"/>
      <ellipse id="Elipse_110-2" data-name="Elipse 110" cx="2.153" cy="0.289" rx="2.153" ry="0.289" transform="translate(15.868 0.549)" fill="#f5f5f5" opacity="0.2"/>
      <ellipse id="Elipse_111-2" data-name="Elipse 111" cx="2.153" cy="0.289" rx="2.153" ry="0.289" transform="translate(19.852 0.549)" fill="#f5f5f5" opacity="0.2"/>
      <rect id="Rectángulo_247-2" data-name="Rectángulo 247" width="2.571" height="1.028" rx="0.514" transform="translate(11.145 3.569)" fill="#638dff"/>
      <rect id="Rectángulo_248-2" data-name="Rectángulo 248" width="2.571" height="1.028" rx="0.514" transform="translate(11.145 3.569)" fill="#f5f5f5" opacity="0.2"/>
      <path id="Trazado_861-2" data-name="Trazado 861" d="M5.725,0H0V5.725H7.188V0Z" transform="translate(9.039 8.91)" fill="#67647e"/>
      <rect id="Rectángulo_249-2" data-name="Rectángulo 249" width="1.463" height="5.725" transform="translate(14.764 8.91)" opacity="0.25"/>
      <rect id="Rectángulo_250-2" data-name="Rectángulo 250" width="1.081" height="0.572" transform="translate(9.738 9.865)" opacity="0.25"/>
      <path id="Trazado_862-2" data-name="Trazado 862" d="M.738.481a1.317,1.317,0,0,1,.2.789A1.343,1.343,0,0,1,.265.81C.02.466-.073.113.062.022S.495.135.738.481Z" transform="translate(11.429 7.757)" fill="#67647e"/>
      <path id="Trazado_863-2" data-name="Trazado 863" d="M.205.481a1.317,1.317,0,0,0-.2.789A1.343,1.343,0,0,0,.678.81c.245-.345.338-.7.2-.789S.449.135.205.481Z" transform="translate(12.374 7.757)" fill="#67647e"/>
    </g>
  </g>
</svg>
