<svg xmlns="http://www.w3.org/2000/svg" width="49.046" height="48.54" viewBox="0 0 49.046 48.54"><g transform="translate(0 -0.238)"><path d="M376.934,12.636a3.266,3.266,0,0,0-4.821,2.873v7.623h3.108V15.509a3.27,3.27,0,0,1,1.713-2.873Zm0,0" transform="translate(-333.567 -10.761)" fill="#d4e1f4"/><path d="M15.846,370.9v-3.509H12.738V370.9a5.7,5.7,0,0,0,5.618,5.756h3.108A5.7,5.7,0,0,1,15.846,370.9Zm0,0" transform="translate(-11.419 -329.124)" fill="#d4e1f4"/><path d="M80.37,12.238H77.263a3.835,3.835,0,0,0-3.822,3.784l-.226,31.763h3.108l.226-31.762a3.835,3.835,0,0,1,3.822-3.785Zm0,0" transform="translate(-65.631 -10.757)" fill="#d4e1f4"/><g transform="translate(0 0.238)"><path d="M107.735,243.083h1.159a.622.622,0,1,0,0-1.243h-1.159a.622.622,0,1,0,0,1.243Zm0,0" transform="translate(-96.018 -216.813)" fill="#3d9db8"/><path d="M112.928,100.543h-5.193a.622.622,0,1,0,0,1.243h5.193a.622.622,0,0,0,0-1.243Zm0,0" transform="translate(-96.018 -90.153)" fill="#3d9db8"/><path d="M228.833,171.813a.621.621,0,0,0-.622-.622h-5.66a.622.622,0,0,0,0,1.243h5.66A.622.622,0,0,0,228.833,171.813Zm0,0" transform="translate(-198.941 -153.483)" fill="#3d9db8"/><path d="M143.18,171.813a.622.622,0,0,0,.622.622h5.529a.622.622,0,0,0,0-1.243H143.8A.621.621,0,0,0,143.18,171.813Zm0,0" transform="translate(-128.349 -153.483)" fill="#3d9db8"/><path d="M107.735,172.434H108.8a.622.622,0,0,0,0-1.243h-1.065a.622.622,0,0,0,0,1.243Zm0,0" transform="translate(-96.018 -153.483)" fill="#3d9db8"/><path d="M6.435,48.763a.65.65,0,0,0,.134.015H31.221a.646.646,0,0,0,.093-.008c.1,0,.2.008.295.008a6.945,6.945,0,0,0,6.842-6.468c0-.015,0-.03,0-.046v-.242a.622.622,0,1,0-1.243,0v.219a5.617,5.617,0,0,1-11.222-.463v-4.13a.622.622,0,0,0-.622-.622H7.507L7.733,5.266a3.835,3.835,0,0,1,3.822-3.784H38.632a4.5,4.5,0,0,0-1.406,3.267V17.741a.622.622,0,1,0,1.243,0V13.615h7.156a.622.622,0,0,0,.622-.622V4.749a4.515,4.515,0,0,0-4.51-4.51c-.052,0-.1,0-.154,0a.547.547,0,0,0-.068,0H11.556A5.082,5.082,0,0,0,6.49,5.255L6.264,37.027H.622A.622.622,0,0,0,0,37.649v4.13a6.949,6.949,0,0,0,6.435,6.984ZM45,4.749v7.623H38.469V4.749a3.267,3.267,0,1,1,6.534,0ZM1.243,38.271h23.5v3.509a7.037,7.037,0,0,0,2.965,5.756H6.861a5.7,5.7,0,0,1-5.618-5.756Zm0,0" transform="translate(0 -0.238)" fill="#3d9db8"/><path d="M292.789,100.543a.622.622,0,0,0,0,1.243h1.492a.622.622,0,0,0,0-1.243Zm0,0" transform="translate(-261.903 -90.153)" fill="#3d9db8"/><path d="M191.586,101.786a.622.622,0,0,0,0-1.243h-8.773a.622.622,0,0,0,0,1.243Zm0,0" transform="translate(-163.319 -90.153)" fill="#3d9db8"/><path d="M175.363,242.462a.621.621,0,0,0-.622-.622h-6.183a.622.622,0,1,0,0,1.243h6.183A.622.622,0,0,0,175.363,242.462Zm0,0" transform="translate(-150.542 -216.813)" fill="#3d9db8"/><path d="M139.016,243.083a.622.622,0,1,0,0-1.243h-.79a.622.622,0,1,0,0,1.243Zm0,0" transform="translate(-123.351 -216.813)" fill="#3d9db8"/><path d="M188.56,313.083h6.183a.622.622,0,1,0,0-1.243H188.56a.622.622,0,1,0,0,1.243Zm0,0" transform="translate(-168.47 -279.562)" fill="#3d9db8"/><path d="M148.227,313.083h1.826a.622.622,0,0,0,0-1.243h-1.826a.622.622,0,0,0,0,1.243Zm0,0" transform="translate(-132.315 -279.562)" fill="#3d9db8"/><path d="M107.735,313.083h2.195a.622.622,0,0,0,0-1.243h-2.195a.622.622,0,0,0,0,1.243Zm0,0" transform="translate(-96.018 -279.562)" fill="#3d9db8"/></g><path d="M279.294,168.485l-.07-.03a50.719,50.719,0,0,1-10.379-6.01.622.622,0,0,0-.746,0,50.732,50.732,0,0,1-10.38,6.01l-.07.03a.621.621,0,0,0-.376.571v6.135a12.194,12.194,0,0,0,5.451,10.015,19.24,19.24,0,0,0,5.389,2.756.618.618,0,0,0,.343,0,20.191,20.191,0,0,0,5.57-2.752c3.691-2.61,5.643-6.075,5.643-10.021v-6.135a.621.621,0,0,0-.376-.571Zm-.867,6.706a10.08,10.08,0,0,1-3.027,7.235v-.152a.622.622,0,1,0-1.243,0v.647a.62.62,0,0,0,.208.463q-.485.406-1.026.792a19.559,19.559,0,0,1-5.047,2.538,18.55,18.55,0,0,1-4.833-2.512q-.5-.37-.957-.759a.62.62,0,0,0,.286-.523v-.647a.622.622,0,0,0-1.243,0v.268a10.292,10.292,0,0,1-3.027-7.352v-5.727a51.961,51.961,0,0,0,9.954-5.747,51.977,51.977,0,0,0,9.955,5.747Zm0,0" transform="translate(-230.624 -145.293)" fill="#1ae5be"/><path d="M360,348.949a.622.622,0,0,0-.621.621v.647a.622.622,0,1,0,1.243,0v-.647A.622.622,0,0,0,360,348.949Zm0,0" transform="translate(-322.149 -312.589)" fill="#1ae5be"/><path d="M380.286,348.949a.622.622,0,0,0-.622.621v.647a.622.622,0,1,0,1.243,0v-.647A.621.621,0,0,0,380.286,348.949Zm0,0" transform="translate(-340.336 -312.589)" fill="#1ae5be"/><path d="M399.957,349.57v.647a.622.622,0,0,0,1.243,0v-.647a.622.622,0,0,0-1.243,0Zm0,0" transform="translate(-358.527 -312.589)" fill="#1ae5be"/><path d="M339.7,348.949a.622.622,0,0,0-.622.621v.647a.622.622,0,1,0,1.243,0v-.647A.621.621,0,0,0,339.7,348.949Zm0,0" transform="translate(-303.958 -312.589)" fill="#1ae5be"/><path d="M319.411,348.949a.622.622,0,0,0-.622.621v.647a.622.622,0,1,0,1.243,0v-.647A.621.621,0,0,0,319.411,348.949Zm0,0" transform="translate(-285.767 -312.589)" fill="#1ae5be"/><path d="M328.587,261.888a.621.621,0,0,0-.879.879l2.395,2.395a.621.621,0,0,0,.879,0l4.21-4.21a.621.621,0,0,0-.879-.879l-3.771,3.77Zm0,0" transform="translate(-293.602 -232.756)" fill="#1ae5be"/></g></svg>