<svg xmlns="http://www.w3.org/2000/svg" width="49" height="45.88" viewBox="0 0 49 45.88"><g transform="translate(-19 -34.092)"><path d="M90.316,248.674l.011-.021c.337-.708,1.079-1.9,2.263-1.9l10.524-.078h.013a1.639,1.639,0,0,1,.787.2c-.612-.9-1.2-1.3-1.889-1.3h-.013l-10.524.078c-1.184.009-1.926,1.2-2.263,1.9l-.011.021-1.8,3.253,1.72-.013Z" transform="translate(-61.338 -189.615)" fill="#d4e1f4"/><path d="M69.019,311.075a.7.7,0,0,1-.2-.488.405.405,0,0,0,0-.05l-.653-5.033a1.71,1.71,0,0,1,.955-1.629l-.608,0h0a.388.388,0,0,1-.063-.006,1.582,1.582,0,0,0-1.383,1.681l.653,4.873a.377.377,0,0,1,0,.048.675.675,0,0,0,.672.667h.005l.7-.005A.7.7,0,0,1,69.019,311.075Z" transform="translate(-43.092 -241.892)" fill="#d4e1f4"/><path d="M79.06,326.4h.014a1.892,1.892,0,0,0-.014-3.784h-.014a1.892,1.892,0,1,0,.013,3.784Zm-.316-2.2a.442.442,0,0,1,.314-.133h0a.445.445,0,0,1,.445.442h0a.445.445,0,0,1-.442.448h0a.445.445,0,0,1-.317-.757Z" transform="translate(-52.149 -258.699)" fill="#3d9db8"/><path d="M246.068,325.1h.014a1.892,1.892,0,0,0-.014-3.784h-.014a1.892,1.892,0,0,0,.014,3.784Zm0-2.337h0a.445.445,0,0,1,0,.89h0a.445.445,0,1,1,0-.89Z" transform="translate(-201.892 -257.529)" fill="#3d9db8"/><path d="M156.19,45.4a16.482,16.482,0,0,0-1.012,1.96l1.328.574a15.218,15.218,0,0,1,1.181-2.2.724.724,0,0,0-.051-.854l-2.162-2.611,2.918-2.918L161,41.512a.724.724,0,0,0,.863.045,13.881,13.881,0,0,1,4.722-1.99.724.724,0,0,0,.567-.638l.327-3.39h4.143l.327,3.39a.724.724,0,0,0,.567.638,14.3,14.3,0,0,1,4.731,2,.724.724,0,0,0,.854-.051l2.608-2.16,2.875,2.912-2.165,2.614a.724.724,0,0,0-.045.863,13.88,13.88,0,0,1,1.99,4.721.724.724,0,0,0,.638.567l3.39.327V55.5l-3.342.326a.724.724,0,0,0-.637.567,14.3,14.3,0,0,1-2,4.731.724.724,0,0,0,.051.854l2.162,2.611-2.918,2.918L178.1,65.345a.724.724,0,0,0-.863-.045,13.876,13.876,0,0,1-4.721,1.99.724.724,0,0,0-.567.638l-.327,3.39h-1.992v1.447h2.649a.724.724,0,0,0,.72-.654l.34-3.528a15.393,15.393,0,0,0,4.245-1.787l2.712,2.246a.724.724,0,0,0,.973-.046l3.849-3.85a.724.724,0,0,0,.046-.973l-2.25-2.716a15.737,15.737,0,0,0,1.791-4.24l3.48-.34a.724.724,0,0,0,.653-.72V50.7a.724.724,0,0,0-.654-.72l-3.528-.34a15.39,15.39,0,0,0-1.787-4.245l2.246-2.712a.724.724,0,0,0-.042-.97l-3.8-3.849a.724.724,0,0,0-.976-.049l-2.717,2.25a15.734,15.734,0,0,0-4.24-1.791L173,34.746a.724.724,0,0,0-.72-.654h-5.457a.724.724,0,0,0-.72.654l-.34,3.528a15.391,15.391,0,0,0-4.244,1.787l-2.712-2.246a.724.724,0,0,0-.973.046l-3.849,3.849a.724.724,0,0,0-.046.973Z" transform="translate(-120.841)" fill="#1ae5be"/><path d="M223.339,132.279l.362,1.4a11.351,11.351,0,1,0-12.713-16.6l1.257.717a9.9,9.9,0,1,1,11.094,14.484Z" transform="translate(-172.141 -69.263)" fill="#1ae5be"/><path d="M194.424,271.661a.724.724,0,0,0,.724.718h.005a.724.724,0,0,0,.718-.729,1.615,1.615,0,0,1,1.6-1.625h.012a1.616,1.616,0,0,1,1.613,1.6.724.724,0,0,0,.724.718h.005a.724.724,0,0,0,.718-.729,3.061,3.061,0,1,0-6.122.045Z" transform="translate(-157.289 -210.246)" fill="#1ae5be"/><path d="M139.521,326.549h.005a.724.724,0,0,0,.718-.729l-.008-1.077a.724.724,0,0,0-.724-.718h-.005a.724.724,0,0,0-.718.729l.008,1.077A.724.724,0,0,0,139.521,326.549Z" transform="translate(-107.407 -259.961)" fill="#1ae5be"/><path d="M205.975,323.315h-.006a.724.724,0,0,0-.718.729l.008,1.077a.724.724,0,0,0,.724.718h.005a.724.724,0,0,0,.718-.729l-.008-1.077A.724.724,0,0,0,205.975,323.315Z" transform="translate(-166.997 -259.324)" fill="#1ae5be"/><path d="M162.4,325.536l-.008-1.077a.724.724,0,0,0-.724-.718h-.005a.724.724,0,0,0-.718.729l.008,1.077a.724.724,0,0,0,.724.718h.005A.724.724,0,0,0,162.4,325.536Z" transform="translate(-127.27 -259.706)" fill="#1ae5be"/><path d="M183.818,323.457a.724.724,0,0,0-.718.729l.008,1.077a.724.724,0,0,0,.724.718h.005a.724.724,0,0,0,.718-.729l-.008-1.077a.724.724,0,0,0-.724-.718Z" transform="translate(-147.136 -259.452)" fill="#1ae5be"/><path d="M35.529,191.185A16.529,16.529,0,1,0,19,174.656,16.547,16.547,0,0,0,35.529,191.185Zm0-31.61a15.082,15.082,0,1,1-15.082,15.082A15.1,15.1,0,0,1,35.529,159.574Z" transform="translate(0 -111.213)" fill="#3d9db8"/><path d="M58.031,248.854h.01l1.712-.013a1.289,1.289,0,0,0,1.278-1.3l-.009-1.332,13.216-.1.009,1.329a1.288,1.288,0,0,0,1.287,1.278h.01l1.712-.013a1.289,1.289,0,0,0,1.278-1.3l-.01-1.434a1.852,1.852,0,0,0,1.233-1.691l.645-4.149a.732.732,0,0,0,.009-.117,3.063,3.063,0,0,0-.758-2.012,2.613,2.613,0,0,0-1.534-.866l-2.051-3.715c-.687-1.211-1.693-2.6-3.395-2.6h-.023l-10.189.083c-1.389.01-2.6.954-3.419,2.658l-2.068,3.727a2.83,2.83,0,0,0-2.226,2.7c0,.072-.006.145-.006.217a.73.73,0,0,0,.01.114l.693,4.14a1.85,1.85,0,0,0,1.141,1.632c.049.021.1.037.148.053l.01,1.422A1.287,1.287,0,0,0,58.031,248.854Zm.159-1.448-.008-1.17,1.392-.01.008,1.171Zm17.5-.137-.008-1.169,1.392-.01.008,1.17ZM60.319,234.25c.007-.013.014-.026.021-.04.328-.689,1.041-1.845,2.134-1.853l10.189-.083h.011c.755,0,1.4.559,2.132,1.858l1.646,2.981-17.8.138Zm-3.428,10.144a.727.727,0,0,0-.01-.114l-.69-4.128c0-.022,0-.045,0-.067a1.387,1.387,0,0,1,1.163-1.381c.021,0,.042,0,.063,0h.006l20.233-.157h.015a1.163,1.163,0,0,1,.9.414,1.633,1.633,0,0,1,.393,1.01l-.643,4.137a.708.708,0,0,0-.009.117.407.407,0,0,1-.4.407l-20.612.16a.37.37,0,0,1-.155-.03.405.405,0,0,1-.252-.371Z" transform="translate(-32.048 -176.397)" fill="#3d9db8"/></g></svg>