<svg xmlns="http://www.w3.org/2000/svg" width="49.349" height="37.757" viewBox="0 0 49.349 37.757"><g transform="translate(0.001 -0.346)"><g transform="translate(4.277 1.592)"><path d="M44.354,121.52H41.242V135l3.112-5.409Zm0,0" transform="translate(-41.241 -110.194)" fill="#d4e1f4"/><path d="M41.242,72.152h3.112v3.876H41.242Zm0,0" transform="translate(-41.241 -65.948)" fill="#d4e1f4"/><path d="M47.822,12.348H44.709a3.479,3.479,0,0,0-3.475,3.475v1.484h3.112V15.823A3.479,3.479,0,0,1,47.822,12.348Zm0,0" transform="translate(-41.234 -12.348)" fill="#d4e1f4"/></g><path d="M70.837.347H33.961a4.725,4.725,0,0,0-4.719,4.72V28.743h1.245V12.917H74.312v14a3.479,3.479,0,0,1-3.475,3.475H47.853v1.245H70.837a4.725,4.725,0,0,0,4.72-4.72V5.066a4.725,4.725,0,0,0-4.72-4.72ZM30.487,11.672V7.8H74.312v3.876ZM74.312,6.551H30.487V5.066a3.479,3.479,0,0,1,3.475-3.475H70.837a3.479,3.479,0,0,1,3.475,3.475Zm0,0" transform="translate(-26.209)" fill="#3d9db8"/><path d="M302.523,174.22a4.782,4.782,0,1,0,0-8.437,4.782,4.782,0,1,0,0,8.437ZM308.315,170a3.533,3.533,0,0,1-4.643,3.359,4.777,4.777,0,0,0,0-6.718A3.533,3.533,0,0,1,308.315,170Zm-11.583,0a3.538,3.538,0,1,1,3.537,3.537A3.537,3.537,0,0,1,296.732,170Zm0,0" transform="translate(-264.834 -147.769)" fill="#3d9db8"/><path d="M14.9,155.867l-.011-.019a3.371,3.371,0,0,0-5.725,0l-.011.018L.5,170.9a3.372,3.372,0,0,0,2.868,5.144H20.687a3.372,3.372,0,0,0,2.868-5.144Zm7.644,17.842a2.1,2.1,0,0,1-1.86,1.095H3.371a2.127,2.127,0,0,1-1.805-3.251l.011-.019L10.229,156.5a2.127,2.127,0,0,1,3.6,0l8.652,15.036.011.019a2.1,2.1,0,0,1,.054,2.157Zm0,0" transform="translate(0 -137.945)" fill="#1ae5be"/><path d="M110.583,214.18a.622.622,0,0,0-.622.622v7.426a.622.622,0,0,0,1.245,0V214.8A.623.623,0,0,0,110.583,214.18Zm0,0" transform="translate(-98.554 -191.65)" fill="#1ae5be"/><path d="M110.583,309.434a.622.622,0,0,0-.622.622v.706a.622.622,0,0,0,1.245,0v-.706A.622.622,0,0,0,110.583,309.434Zm0,0" transform="translate(-98.554 -277.023)" fill="#1ae5be"/></g></svg>