<svg xmlns="http://www.w3.org/2000/svg" width="49" height="45.73" viewBox="0 0 49 45.73"><g transform="translate(0 -0.066)"><path d="M37.483,44.449a.829.829,0,0,0-.709-.4l-12.93.008h0a3.9,3.9,0,0,1-3.9-3.9L19.92,14.612c0-.121.006-.24.017-.359H17.907A3.909,3.909,0,0,0,14,18.162l.016,25.544a3.9,3.9,0,0,0,3.9,3.9h0l12.93-.008a.829.829,0,0,1,.709.4L36.7,56.48l4.026-6.673Zm0,0" transform="translate(-12.347 -12.509)" fill="#d4e1f4"/><g transform="translate(8.586 11.454)"><path d="M103.566,197.969H73.394a.828.828,0,1,1,0-1.656h30.171a.828.828,0,0,1,0,1.656Zm0,0" transform="translate(-72.566 -184.481)" fill="#1ae5be"/><path d="M103.566,147.969H73.394a.828.828,0,1,1,0-1.656h30.171a.828.828,0,1,1,0,1.656Zm0,0" transform="translate(-72.566 -140.397)" fill="#1ae5be"/><path d="M103.566,97.969H73.394a.828.828,0,0,1,0-1.656h30.171a.828.828,0,1,1,0,1.656Zm0,0" transform="translate(-72.566 -96.313)" fill="#1ae5be"/></g><path d="M47.353,1.693A5.528,5.528,0,0,0,43.423.066h0L5.557.09A5.567,5.567,0,0,0,0,5.655L.016,31.2a5.561,5.561,0,0,0,5.561,5.557h0l12.464-.008L23.1,45.1l.01.017a1.472,1.472,0,0,0,1.246.683h0a1.47,1.47,0,0,0,1.245-.685l.01-.016,5.041-8.355,12.794-.008A5.56,5.56,0,0,0,49,31.168L48.984,5.624a5.524,5.524,0,0,0-1.631-3.931ZM43.442,35.076l-13.261.008a.828.828,0,0,0-.709.4l-5.121,8.488L19.22,35.49a.829.829,0,0,0-.709-.4L5.58,35.1h0a3.9,3.9,0,0,1-3.9-3.9L1.657,5.653a3.909,3.909,0,0,1,3.9-3.907l37.862-.024h0a3.909,3.909,0,0,1,3.9,3.9l.016,25.544a3.91,3.91,0,0,1-3.9,3.907Zm0,0" transform="translate(0 0)" fill="#3d9db8"/></g></svg>